<?xml version="1.0" encoding="utf-8" ?>
<svg xmlns="http://www.w3.org/2000/svg" xmlns:xlink="http://www.w3.org/1999/xlink" width="1024" height="1024">
	<path fill="#65D0D2" d="M0 0L1024 0L1024 1024L0 1024L0 0Z"/>
	<path fill="#46073A" d="M518.978 33.7194C523.335 33.6148 530.861 32.4591 534.368 35.158C535.459 37.8441 532.759 39.6531 531 41.4685C512.867 60.1753 504.455 78.0253 500.224 103.576C526.892 85.6728 555.794 72.949 588.657 76.7943C611.505 79.4676 645.491 92.6287 659.975 110.932C651.799 121.154 639.731 128.847 628.703 135.732C653.825 145.636 676.248 162.293 704.806 153.267C705.976 152.897 706.756 152.684 707.98 152.724C708.371 153.077 708.666 153.301 708.949 153.782C710.452 156.337 709.871 160.835 709.678 163.68C708.63 179.092 704.777 192.667 699.791 207.165C717.711 209.825 735.192 212.453 753.042 207.627C757.879 206.319 762.504 202.234 766.908 201.432C767.65 201.297 768.401 201.134 769.015 201.653C771.788 203.999 772.436 219.823 772.516 223.819C773.245 260.208 760.224 290.294 735.285 316.398C743.462 328.035 756.305 338.863 768.46 346.135C772.746 348.7 777.675 350.227 781.605 353.348C782.259 354.821 782.014 355.726 781.472 357.227C779.03 363.993 774.444 370.352 770.004 375.936C754.682 395.211 735.604 408.496 713.511 418.88C715.64 428.921 719.807 436.779 725.129 445.482Q724.037 446.679 722.844 447.776C704.89 464.078 673.104 469.406 649.746 468.38C645.241 474.451 640.052 479.888 634.898 485.4C641.853 489.535 650.678 492.005 658.23 495.026C674.065 501.359 707.226 515.83 719.547 526.499C742.398 546.287 782.668 655.064 791.859 687.198C794.909 697.86 797.579 708.924 798.384 720.004C799.568 736.319 798.221 742.123 787.539 754.597Q792.555 755.197 797.525 756.1Q802.495 757.003 807.401 758.207Q812.307 759.411 817.131 760.91Q821.954 762.41 826.678 764.2C845.674 771.323 862.586 783.009 871.127 802.001C877.801 816.841 878.709 834.964 872.845 850.21C867.908 863.044 858.645 874.215 848.492 883.292C822.209 906.791 767.723 933.202 734.858 946.759Q718.242 953.628 701.475 960.119C693.543 963.143 685.4 965.874 677.649 969.332C675.518 973.814 673.219 977.398 669.151 980.376C662.57 985.193 654.221 985.907 647.026 989.477C638.362 993.775 630.474 999.527 621.762 1003.8C613.563 1007.83 604.282 1010.52 595.317 1007.24C589.678 1005.18 585 1001.24 581.263 996.621C570.369 983.149 557.234 949.322 549.851 932.643C546.426 924.62 542.886 916.638 540.027 908.392C518.374 914.176 496.889 921.299 475.595 928.288C467.879 943.469 453.246 981.615 443.207 991.938C438.273 997.01 431.71 1000.51 424.517 1000.53C409.735 1000.59 386.502 983.456 376.078 973.449C371 973.501 363.964 974.344 359.373 972.008C355.255 969.913 354.137 966.206 352.807 962.131C296.48 949.347 228.469 914.346 183.716 877.954C166.142 863.663 152.431 844.088 150.164 820.997C148.487 803.917 152.795 786.319 163.825 772.94C181.46 751.55 208.176 744.998 234.513 742.418C231.126 738.755 228.57 734.426 227.478 729.522C226.244 723.983 226.797 717.826 227.853 712.304C231.17 694.968 238.806 677.535 245.582 661.278C262.641 620.351 284.19 574.766 308.106 537.435C327.206 507.622 356.542 497.959 389.232 490.675C381.647 481.585 375.253 471.719 368.926 461.736C358.113 464.274 347.652 465.728 336.569 464.114C319.021 461.557 296.866 449.25 286.257 434.988C288.298 431.939 290.943 429.217 293.317 426.416C298.779 419.973 301.692 413.877 304.366 405.89C291.65 402.629 280.908 393.787 271.879 384.614Q265.365 377.967 259.767 370.533C256.55 366.259 241.543 343.817 241.595 338.949C243.102 336.156 252.969 334.135 256.211 332.748C266.629 328.292 276.383 322.333 286.099 316.554C274.858 311.493 266.471 305.387 258.882 295.587C247.464 280.841 240.308 262.547 237.125 244.261C236.608 241.288 235.553 236.642 236.221 233.689C236.249 233.566 236.559 232.339 236.776 232.121C238.953 229.931 261.356 238.975 272.765 229.964C280.912 223.53 286.011 214.837 291.662 206.322C301.555 191.415 312.641 178.555 327.866 168.892C321.528 147.892 321.866 123.228 329.265 102.537C330.319 99.5923 331.292 96.0949 334.322 94.6748C339.969 95.4017 338.409 105.16 343.535 110.235C352.353 118.965 377.325 112.343 389.009 112.152C399.363 111.982 410.177 113.981 417.804 121.428C418.224 99.7815 424.894 81.5675 439.653 65.397C461.296 41.6835 488.11 35.079 518.978 33.7194Z"/>
	<path fill="#05495D" d="M306.464 681.052C307.172 682.031 308.014 685.206 307.842 686.388C307.698 687.377 307.336 687.597 306.615 688.162L303.815 687.742C302.847 687.621 302.476 687.552 301.593 687.07C301.897 685.161 305.064 682.539 306.464 681.052Z"/>
	<path fill="#FCBA98" d="M695.701 806.558C704.946 810.06 713.222 802.572 721.864 802.644C718.48 808.398 714.835 810.724 708.292 812.383C703.87 813.505 699.381 813.917 694.834 814.06C695.106 811.67 695.175 808.886 695.701 806.558Z"/>
	<path fill="#65D0D2" d="M602.208 571.341L608.781 572.928Q614.895 580.588 621.827 587.516C625.778 591.473 630.732 595.491 633.906 600.045C633.334 601.304 632.729 601.372 631.568 602.017C623.168 597.158 607.081 580.205 602.208 571.341Z"/>
	<path fill="#FA9674" d="M624.965 313.228C628.743 314.205 637.772 318.89 640.99 316.897C642.606 315.895 643.034 313.872 643.486 312.169Q650.187 318.396 656.591 324.928C656.571 329.867 656.943 335.248 656.023 340.104C655.829 338.115 655.85 336.101 655.809 334.103C650.652 331.069 645.903 327.433 640.948 324.089C635.517 320.423 630.123 317.309 624.965 313.228Z"/>
	<path fill="#05495D" d="M734.297 786.378C741.416 781.225 747.931 774.854 754.83 769.363C765.446 760.913 776.502 753.277 786.692 744.245L787.842 744.739C783.455 751.246 774.403 758.013 768.392 763.485C755.879 774.876 743.121 786.117 731.125 798.051C732.383 794.182 733.428 790.353 734.297 786.378Z"/>
	<path fill="#65D0D2" d="M398.141 503.343C398.856 506.918 398.285 510.737 397.878 514.33C396.158 527.818 396.675 542.538 405.38 553.69C408.811 558.085 416.882 561 419.241 564.717L418.651 565.298C413.518 564.317 407.877 563.7 402.977 561.894C399.827 560.734 397.591 559.127 396.186 556.019C390.18 542.728 392.886 516.69 398.141 503.343Z"/>
	<path fill="#FA9674" d="M378.865 217.799L379.069 218.509C378.839 218.697 378.607 218.881 378.379 219.071C358.194 235.909 346.081 270.913 344.303 296.354C344.183 298.067 344.097 299.854 344.376 301.553C344.219 304.166 344.432 308.111 343.325 310.426L342.724 309.938C339.272 299.346 342.987 272.893 346.011 262.427C351.532 243.319 361.23 227.55 378.865 217.799Z"/>
	<path fill="#65D0D2" d="M635.569 490.383C637.138 490.923 637.779 491.553 638.473 493.082C640.214 496.915 640.948 501.355 641.674 505.472C644.397 520.919 644.487 536.994 638.532 551.729C636.52 556.705 633.617 563.301 628.388 565.515C621.28 568.524 606.885 568.189 599.052 567.446L599.236 566.198C599.284 566.194 599.333 566.197 599.38 566.187C607.74 564.373 620.603 564.943 627.242 559.237C639.462 548.732 640.211 525.261 638.268 510.73C637.406 504.278 635.011 497.45 635.517 490.935C635.532 490.751 635.552 490.567 635.569 490.383Z"/>
	<path fill="#FA9674" d="M340.173 115.796C344.758 118.355 349.044 119.915 354.299 120.417C372.901 122.193 409.894 109.127 418.887 133.599C412.989 132.659 407.086 128.122 400.239 127.136C382.572 124.592 364.264 132.203 347.354 123.056C344.896 121.726 340.94 118.603 340.173 115.796Z"/>
	<path fill="#FA9674" d="M622.953 139.055C649.615 152.09 672.862 166.28 703.802 159.803C703.625 161.77 703.549 163.807 703.229 165.753C672.575 172.153 641.167 158.057 614.957 143.151L622.953 139.055Z"/>
	<path fill="#05495D" d="M648.444 519.409C654.017 530.423 648.732 563.092 644.708 575.189C642.406 582.108 639.334 590.343 634.975 596.234C628.029 588.641 620.776 581.261 613.573 573.91C620.521 573.957 628.195 574.732 633.9 569.926C645.112 560.48 647.534 533.237 648.444 519.409Z"/>
	<path fill="#921C2D" d="M702.661 169.434Q702.255 174.302 701.407 179.113Q700.559 183.923 699.276 188.636Q697.992 193.349 696.284 197.926Q694.576 202.502 692.458 206.904C683.055 205.102 674.116 202.341 665.112 199.122C662.493 198.186 654.44 194.538 652.067 194.797C649.918 194.039 648.004 192.611 646.092 191.389Q651.185 191.677 656.267 191.225C674.867 189.733 690.331 183.794 702.661 169.434Z"/>
	<path fill="#FA9674" d="M589.318 206.809C610.843 208.83 630.173 216.868 644.207 233.907C657.603 250.171 662.652 271.616 665.263 292.057C665.139 292.744 664.967 293.348 664.76 294.012C663.833 292.703 658.949 278.357 657.652 275.201C650.155 256.958 636.483 236.728 621.192 224.296C615.064 219.314 608.183 214.869 600.939 211.69C597.624 210.236 591.442 209.457 588.841 207.303L589.318 206.809Z"/>
	<path fill="#05495D" d="M398.141 503.343C398.587 502.235 398.519 501.868 399.55 501.193C403.683 503.708 407.46 507.204 411.287 510.177Q420.25 517.141 429.72 523.398C432.25 533.684 435.948 543.774 439.805 553.629C426.398 547.298 414.657 538.524 405.909 526.465C403.144 522.654 400.946 518.382 398.139 514.668L397.878 514.33C398.285 510.737 398.856 506.918 398.141 503.343Z"/>
	<path fill="#FBF6DF" d="M680.307 317.554C684.883 316.012 688.908 315.54 693.366 317.819C700.003 321.213 703.652 329.434 705.651 336.262C710.272 352.046 707.038 370.873 699.134 385.096C694.449 393.527 687.086 401.291 677.703 404.283C677.711 404.065 677.687 403.843 677.727 403.629C678.474 399.627 682.635 395.108 684.236 391.231C688.628 380.595 691.602 357.834 699.817 350.737C700.675 349.158 701.095 347.839 701.106 346.021C701.155 337.885 694.66 327.781 688.267 322.962C685.99 321.246 682.909 320.272 680.931 318.227C680.719 318.007 680.515 317.778 680.307 317.554Z"/>
	<path fill="#05495D" d="M719 656.757C719.16 657.005 719.324 657.248 719.478 657.499C723.092 663.391 723.779 670.431 728.722 676.318C735.674 684.598 750.13 684.331 759.166 690.285C763.123 692.892 766.046 696.301 769.044 699.918C765.766 699.166 760.04 699.005 757.326 697.502C755.727 696.365 753.494 696.028 751.59 695.709C738.165 693.455 721.376 700.423 710.629 708.028C712.046 700.8 713.574 693.551 714.646 686.262C716.091 676.43 717.039 666.508 719 656.757Z"/>
	<path fill="#FA9674" d="M656.65 197.262C666.957 201.872 677.335 206.627 688.123 210.012C708.989 216.56 737.069 219.975 757.817 212.194C760.303 211.261 762.692 210.08 765.072 208.908L765.704 214.69C764.075 216.091 762.452 217.445 761.019 219.052C752.965 224.444 742.91 226.989 733.362 227.795C704.479 230.234 677.978 216.197 656.508 197.917L656.65 197.262Z"/>
	<path fill="#65D0D2" d="M176.342 862.95C170.169 857.153 164.795 848.345 161.379 840.64C154.407 824.911 153.4 807.03 159.695 790.892C165.674 775.565 179.571 763.768 194.404 757.317C208.036 751.389 234.88 744.537 249.169 750.198C224.044 752.921 196.729 756.802 179.773 777.775C173.32 785.756 168.63 796.596 167.476 806.814Q167.064 809.635 166.826 812.475Q166.588 815.316 166.525 818.166Q166.462 821.015 166.573 823.864Q166.684 826.712 166.97 829.548Q167.255 832.384 167.714 835.198Q168.173 838.011 168.804 840.791Q169.434 843.571 170.234 846.307Q171.033 849.043 171.999 851.725C173.203 855.087 176.284 859.552 176.342 862.95Z"/>
	<path fill="#FBF6DF" d="M314.849 726.921C316.555 734.028 316.948 741.741 318.124 748.991L327.315 805.418Q321.946 802.581 316.713 799.5C312.905 797.094 308.751 794.631 305.595 791.377C299.493 785.086 297.594 775.309 297.691 766.834C297.866 751.521 303.929 737.521 314.849 726.921Z"/>
	<path fill="#921C2D" d="M333.316 166.593C329.763 146.499 328.715 127.58 334.291 107.686C335.479 109.845 336.711 111.884 338.093 113.926C337.536 117.705 341.541 122.863 343.75 125.824C354.422 140.129 371.879 148.183 387.302 156.312C391.312 158.425 397.168 160.637 399.949 164.23C377.204 157.117 355.146 156.248 333.316 166.593Z"/>
	<path fill="#65D0D2" d="M360.892 504.807C360.732 505.069 360.582 505.337 360.411 505.592C357.822 509.443 344.844 516.788 340.252 520.53C331.567 527.607 324.127 536.515 317.916 545.79C309.976 557.647 303.114 570.353 296.241 582.847Q282.496 607.807 270.313 633.565Q258.129 659.324 247.555 685.783Q242.344 698.471 238.381 711.603C236.814 716.79 235.804 723.357 233.485 728.159C228.611 703.183 272.976 613.087 286.933 586.839Q294.928 571.921 303.478 557.314C307.906 549.624 312.116 541.483 317.478 534.394C327.688 520.898 344.793 509.727 360.892 504.807Z"/>
	<path fill="#F36337" d="M604.537 278.074C605.049 278.08 605.207 278.042 605.745 278.271C610.006 280.083 633.019 301.839 636.472 306.187C637.958 308.057 638.783 310.034 639.621 312.242C621.737 306.487 604.712 300.696 585.656 300.551C572.252 301.646 560.405 305.143 547.799 309.54C548.831 306.452 549.975 303.437 551.726 300.678C558.351 290.241 568.91 287.344 580.112 284.096C588.199 281.751 596.312 279.864 604.537 278.074Z"/>
	<path fill="#65D0D2" d="M782.414 759.013C810.171 763.785 843.279 770.874 860.498 795.418Q861.303 796.586 862.051 797.791Q862.798 798.996 863.487 800.236Q864.175 801.476 864.803 802.747Q865.43 804.019 865.996 805.32Q866.561 806.62 867.063 807.947Q867.565 809.273 868.002 810.622Q868.439 811.971 868.811 813.34Q869.182 814.708 869.487 816.093Q869.792 817.478 870.029 818.877Q870.266 820.275 870.436 821.683Q870.606 823.091 870.707 824.505Q870.808 825.92 870.841 827.337Q870.874 828.755 870.838 830.173Q870.802 831.591 870.698 833.005Q870.594 834.419 870.421 835.827Q870.248 837.234 870.008 838.632C866.94 855.701 853.523 872.965 839.704 882.934C840.677 879.015 846.974 872.964 849.377 869.194C854.635 860.943 858.159 850.812 860.293 841.343C860.371 841.053 860.454 840.765 860.528 840.474C863.522 828.701 860.504 813.923 854.133 803.741C843.147 786.186 821.217 775.566 801.911 770.234C793.525 767.918 784.957 766.587 776.48 764.682L782.414 759.013Z"/>
	<path fill="#FBF6DF" d="M705.438 743.2L706.106 743.529C715.673 748.35 723.356 756.599 726.695 766.858C730.757 779.334 727.694 791.358 721.864 802.644C713.222 802.572 704.946 810.06 695.701 806.558C696.509 798.704 698.068 790.808 699.322 783.011Q702.608 763.141 705.438 743.2Z"/>
	<path fill="#F36337" d="M730.844 320.435C741.128 335.145 755.756 346.173 771.481 354.494C768.964 356.72 766.27 358.204 763.199 359.53C745.418 367.208 730.872 361.803 714.019 355.134C714.064 352.965 714.471 350.137 713.664 348.115C713.344 342.185 711.97 336.679 710.047 331.086C717.507 328.552 723.69 323.526 730.844 320.435Z"/>
	<path fill="#FA9674" d="M247.078 238.813C247.268 238.858 247.458 238.908 247.649 238.949C278.243 245.401 286.49 222.288 301.281 201.713C308.483 191.696 317.101 182.761 327.459 175.991C348.288 162.378 368.032 162.206 391.58 167.166C391.292 167.264 391.006 167.37 390.715 167.46C386.905 168.635 381.617 167.916 377.629 168.027C365.701 168.358 353.728 173.023 343.584 179.069C318.511 194.015 297.073 244.144 266.722 245.061C260.213 245.258 255.584 242.603 249.551 241.088L247.078 238.813Z"/>
	<path fill="#921C2D" d="M561.782 219.834C567.463 223.3 572.677 227.671 578.177 231.446C588.733 238.692 599.467 245.638 609.482 253.641C621.744 263.441 633.226 275.086 643.745 286.734C648.11 291.569 652.057 296.801 655.88 302.07C658.46 305.627 661.406 311.322 664.765 314.02C664.455 316.574 663.678 318.963 662.93 321.412C652.831 315.331 639.591 299.429 630.127 290.87Q618.971 280.892 607.561 271.206C597.721 263.012 587.618 254.953 578.964 245.468Q576.367 242.595 573.985 239.542Q571.602 236.489 569.446 233.272Q567.29 230.056 565.371 226.692Q563.453 223.328 561.782 219.834Z"/>
	<path fill="#65D0D2" d="M644.431 495.618C662.129 502.374 706.417 520.634 718.506 533.869C728.396 544.696 735.477 560.784 741.449 574.131C755.145 604.738 802.863 711.433 791.174 739.798C790.446 741.565 789.422 743.005 788.162 744.424C787.332 738.434 788.788 731.894 788.514 725.783C787.857 711.161 783.292 696.122 778.638 682.327C771.783 662.006 729.005 550.247 717.612 540.215C713.191 536.322 707.005 533.627 701.835 530.834C692.294 525.681 682.742 520.477 672.931 515.852C664.223 511.746 655.272 508.171 646.642 503.897C645.908 501.139 645.219 498.36 644.431 495.618Z"/>
	<path fill="#F36337" d="M359.733 928.141C361.853 911.182 367.536 893.712 377.095 879.463C382.881 870.838 392.726 859.089 403.592 857.242C407.131 856.641 413.87 856.595 416.898 858.655C410.517 864.117 404.507 869.745 399.318 876.392C385.51 894.08 375.317 919.919 373.572 942.257C372.913 950.701 373.253 959.297 375.293 967.541C370.34 967.587 365.391 967.696 360.449 967.319C358.318 957.651 356.64 937.467 359.733 928.141Z"/>
	<path fill="#F36337" d="M610.004 862.436C616.089 862.482 622.344 862.477 628.412 862.906C631.816 863.146 633.278 863.258 635.629 865.938C654.576 881.694 665.698 910.935 669.172 935.024C671.084 943.34 673.159 964.457 668.871 971.707C665.396 977.583 657.322 979.528 651.151 981.046Q651.496 980.045 651.775 979.024C658.6 954.7 651.99 924.369 641.211 901.836C638.161 895.46 634.146 889.577 630.677 883.426C626.921 878.567 623.148 873.806 618.653 869.604L610.004 862.436Z"/>
	<path fill="#FA9674" d="M665.04 357.409C664.458 349.696 663.438 339.267 666.042 331.912C668.333 325.443 674.358 320.551 680.307 317.554C680.515 317.778 680.719 318.007 680.931 318.227C682.909 320.272 685.99 321.246 688.267 322.962C694.66 327.781 701.155 337.885 701.106 346.021C701.095 347.839 700.675 349.158 699.817 350.737C691.602 357.834 688.628 380.595 684.236 391.231C682.635 395.108 678.474 399.627 677.727 403.629C677.687 403.843 677.711 404.065 677.703 404.283C674.697 405.299 671.55 405.567 668.393 405.678C668.243 405.457 668.07 405.25 667.944 405.015C667.087 403.423 666.208 381.227 666.317 378.061C666.353 377.019 666.697 376.087 667.144 375.158C667.144 375.157 667.869 373.731 667.889 373.623C668.13 372.315 666.568 372.658 665.853 371.554C664.394 369.302 664.584 360.063 665.04 357.409Z"/>
	<path fill="#921C2D" d="M666.936 371.915C670.628 360.861 676.421 346.36 686.608 339.634C688.166 338.605 689.921 337.91 691.797 338.499C694.485 339.344 695.555 341.96 696.615 344.303C696.679 345.417 697.152 348.363 696.532 349.139C695.334 346.838 694.375 343.281 691.722 342.374C690.452 341.94 689.031 342.413 687.926 343.086C679.862 348.003 669.754 367.327 667.901 376.411C665.998 385.742 669.679 396.092 668.393 405.678C668.243 405.457 668.07 405.25 667.944 405.015C667.087 403.423 666.208 381.227 666.317 378.061C666.353 377.019 666.697 376.087 667.144 375.158C667.144 375.157 667.869 373.731 667.889 373.623C668.13 372.315 666.568 372.658 665.853 371.554C664.394 369.302 664.584 360.063 665.04 357.409C665.99 362.13 666.333 367.127 666.936 371.915Z"/>
	<path fill="#FCBA98" d="M665.04 357.409C664.458 349.696 663.438 339.267 666.042 331.912C668.333 325.443 674.358 320.551 680.307 317.554C680.515 317.778 680.719 318.007 680.931 318.227C682.909 320.272 685.99 321.246 688.267 322.962C694.66 327.781 701.155 337.885 701.106 346.021C701.095 347.839 700.675 349.158 699.817 350.737C699.715 350.692 699.605 350.661 699.511 350.601C697.784 349.518 697.323 346.23 696.615 344.303C695.555 341.96 694.485 339.344 691.797 338.499C689.921 337.91 688.166 338.605 686.608 339.634C676.421 346.36 670.628 360.861 666.936 371.915C666.333 367.127 665.99 362.13 665.04 357.409Z"/>
	<path fill="#2098A6" d="M397.878 514.33L398.139 514.668C400.946 518.382 403.144 522.654 405.909 526.465C414.657 538.524 426.398 547.298 439.805 553.629C447.049 570.131 454.612 586.09 462.897 602.095Q442.146 601.053 421.369 601.02C412.794 600.95 401.964 601.594 393.695 600.018C395.675 596.441 412.722 585.239 417.355 581.514C419.542 579.095 422.158 576.688 423.782 573.85C424.537 572.531 424.965 571.147 424.378 569.65C423.462 567.316 420.846 566.091 418.651 565.298L419.241 564.717C416.882 561 408.811 558.085 405.38 553.69C396.675 542.538 396.158 527.818 397.878 514.33Z"/>
	<path fill="#65D0D2" d="M417.355 581.514C417.278 581.942 417.294 582.398 417.125 582.798C416.544 584.167 403.336 596.13 400.423 600.029L393.695 600.018C395.675 596.441 412.722 585.239 417.355 581.514Z"/>
	<path fill="#05495D" d="M490.349 859.715C496.252 859.334 502.308 859.743 508.224 859.831Q528.728 860.19 549.22 860.968C544.607 866.175 539.126 869.755 536.063 876.297C531.705 885.606 535.202 894.406 538.533 903.272Q530.911 905.146 523.36 907.288C508.446 911.753 493.622 916.44 478.621 920.621C482.675 911.457 495.938 884.318 495.217 875.749C494.821 871.037 490.217 860.943 490.349 859.715Z"/>
	<path fill="#921C2D" d="M451.284 193.29C453.452 202.078 456.363 210.148 460.3 218.299C430.096 240.171 401.615 263.333 374.688 289.173C366.572 296.962 357.991 304.731 350.837 313.422C348.368 311.996 346.18 310.902 343.325 310.426C344.432 308.111 344.219 304.166 344.376 301.553C345.814 299.215 346.779 296.528 348.193 294.133C352.36 287.077 357.616 280.57 363.384 274.761C376.437 261.613 391.413 250.312 406.312 239.371C418.283 230.58 431.517 221.706 441.482 210.669C445.931 205.741 449.585 199.748 451.284 193.29Z"/>
	<path fill="#921C2D" d="M327.888 399.654C332.024 403.976 336.324 407.311 341.547 410.226C345.352 411.651 349.148 413.15 353.018 414.39C355.817 429.065 359.233 442.841 366.142 456.242C345.117 460.968 327.608 458.623 309.32 446.985C305.482 444.543 296.396 439.137 294.05 435.647C294.392 434.373 294.565 434.494 295.557 433.729C302.789 425.049 308.493 416.656 310.908 405.461C317.135 404.343 322.17 402.372 327.888 399.654Z"/>
	<defs>
		<linearGradient id="gradient_0" gradientUnits="userSpaceOnUse" x1="346.017" y1="406.7077" x2="333.46927" y2="318.35944">
			<stop offset="0" stop-color="#EB9469"/>
			<stop offset="1" stop-color="#FDD0B7"/>
		</linearGradient>
	</defs>
	<path fill="url(#gradient_0)" d="M352.527 408.024C338.592 403.079 329.035 392.825 322.731 379.582C316.09 365.632 313.691 349.203 319.052 334.411C321.393 327.952 325.618 321.739 332.055 318.839C336.327 316.914 341.395 316.695 345.753 318.48C351.568 320.862 355.352 325.959 357.596 331.65C361.384 341.257 360.601 360.145 362.204 371.286L361.052 371.82C358.723 362.238 352.305 347.82 343.433 342.618C340.35 340.811 336.731 340.044 333.255 341.114C330.116 342.081 327.782 344.351 326.303 347.235C322.037 355.559 323.836 366.805 326.736 375.252L326.984 375.96C326.578 367.852 324.214 353.014 330.059 346.586C331.438 345.07 333.053 344.351 335.098 344.289C338.35 344.191 341.235 346.064 343.48 348.253C349.335 353.96 353.177 362.552 355.944 370.116C352.779 382.736 352.348 395.092 352.527 408.024Z"/>
	<path fill="#05495D" d="M360.892 504.807C364.307 502.558 391.18 496.172 394.881 496.907L395.402 497.484C394.736 502.286 391.903 507.783 390.778 512.805C388.087 524.816 386.275 553.098 393.693 563.417C398.572 570.205 409.477 571.289 417.096 572.508C410.51 579.552 402.698 585.049 395.109 590.93C391.526 593.707 387.983 596.843 384.23 599.359C376.501 599.403 368.473 599.405 360.793 598.615C362.8 598.605 364.8 598.729 366.734 598.128C366.875 597.614 367.032 597.103 367.139 596.581C370.864 578.449 371.045 520.439 360.892 504.807Z"/>
	<path fill="#966F7F" d="M338.557 830.447C340.946 832.137 343.098 833.624 345.835 834.708C345.923 834.743 346.011 834.78 346.099 834.815C346.405 834.751 346.76 834.778 347.008 834.588C347.134 834.726 347.248 834.876 347.386 835.002C349.629 837.054 353.102 837.565 356.014 837.857C370.307 839.29 384.986 839.311 399.353 839.893L497.057 843.418L596.509 847.369Q622.356 848.695 648.23 849.287C659.349 849.579 670.524 850.035 681.639 849.481C678.399 852.638 674.425 856.518 669.769 857.173C660.766 858.441 650.514 857.111 641.451 856.777L586.991 854.946Q542.999 854.07 499.033 852.3C484.302 851.629 469.515 849.901 454.813 849.493C445.865 849.245 436.892 849.64 427.94 849.498Q390.409 848.998 352.971 846.294C349.967 846.066 346.729 845.678 344.272 843.783C340.198 840.64 339.297 835.215 338.557 830.447Z"/>
	<path fill="#921C2D" d="M450.565 180.979C450.333 177.342 450.674 173.712 451.234 170.116C454.717 177.886 458.414 184.95 463.616 191.756C484.311 218.835 521.069 240.517 552.491 252.49C556.936 254.184 575.78 261.332 579.347 260.434C583.53 264.72 586.455 270.183 590.609 274.599C586.516 275.926 582.808 277.581 578.961 279.509Q573.626 278.943 568.341 278.018Q563.057 277.093 557.847 275.813Q552.637 274.534 547.525 272.906Q542.413 271.279 537.422 269.31C506.76 257.299 475.059 237.793 459.873 207.435C457.199 202.091 455.138 196.588 453.487 190.849C452.633 187.882 452.161 184.416 450.88 181.638C450.778 181.417 450.67 181.199 450.565 180.979Z"/>
	<path fill="#FA9674" d="M430.829 149.609Q429.828 148.096 428.937 146.515Q428.046 144.935 427.269 143.295Q426.493 141.655 425.836 139.964Q425.178 138.273 424.643 136.539Q424.107 134.805 423.696 133.038Q423.286 131.271 423.002 129.479Q422.718 127.687 422.562 125.879Q422.407 124.071 422.38 122.257C422.072 101.8 431.652 82.3341 445.786 67.8563C466.379 46.7613 496 39.9132 524.546 39.4491L523.994 40.0014C507.963 56.132 497.093 77.9855 494.818 100.659C494.317 105.654 494.467 110.739 494.5 115.754C495.638 114.342 496.786 112.916 498.057 111.619C516.074 93.224 551.416 82.2875 576.646 82.3031C600.559 82.3179 633.941 93.2288 651.051 110.425C650.795 110.426 650.539 110.435 650.283 110.429C648.087 110.377 624.737 100.301 620.45 98.8275C579.735 84.8349 532.482 92.5778 499.885 121.058C491.548 128.343 487.183 135.623 480.803 144.409C482.426 137.844 485.14 131.978 487.524 125.698C481.3 104.67 482.745 84.8789 493.371 65.3559Q494.4 63.4443 495.58 61.6217Q496.76 59.7991 498.082 58.0773Q499.404 56.3554 500.861 54.7456Q502.318 53.1357 503.899 51.6482C478.961 55.234 458.955 61.6604 443.232 82.7181C430.861 99.286 426.798 121.853 429.804 142.059C430.136 144.291 431.108 147.412 430.829 149.609Z"/>
	<path fill="#2098A6" d="M625.88 499.939C629.28 496.882 632.49 493.767 635.569 490.383C635.552 490.567 635.532 490.751 635.517 490.935C635.011 497.45 637.406 504.278 638.268 510.73C640.211 525.261 639.462 548.732 627.242 559.237C620.603 564.943 607.74 564.373 599.38 566.187C599.333 566.197 599.284 566.194 599.236 566.198L599.052 567.446L597.682 567.743L597.703 568.561C599.097 569.864 600.485 570.542 602.208 571.341C607.081 580.205 623.168 597.158 631.568 602.017C627.225 604.655 621.611 606.392 616.557 606.892C610.115 607.53 603.089 606.687 596.613 606.39Q580.238 605.536 563.843 605.305C565.854 599.425 568.698 593.695 571.161 587.988C579.992 567.527 589.704 548.662 600.346 529.116C604.827 520.887 611.889 519.491 612.85 508.538C617.565 506.226 621.672 503.04 625.88 499.939Z"/>
	<path fill="#921C2D" d="M713.664 348.115C714.471 350.137 714.064 352.965 714.019 355.134C730.872 361.803 745.418 367.208 763.199 359.53C766.27 358.204 768.964 356.72 771.481 354.494C772.804 355.091 774.059 355.843 775.328 356.547C763.308 377.566 744.266 395.949 722.998 407.685C718.449 410.195 713.69 411.754 709.082 414.003C708.307 414.381 707.362 414.848 707.131 415.723C705.381 422.344 714.22 438.523 717.357 444.802C698.495 458.035 676.58 461.919 653.972 462.183C665.337 445.551 667.978 431.698 668.857 411.992C678.526 410.309 686.925 408.458 694.213 401.469C708.597 387.673 713.309 367.344 713.664 348.115Z"/>
	<path fill="#921C2D" d="M765.704 214.69Q765.856 216.125 765.973 217.564Q766.089 219.003 766.171 220.444Q766.253 221.885 766.3 223.328Q766.346 224.771 766.358 226.214Q766.369 227.658 766.346 229.101Q766.322 230.544 766.263 231.986Q766.204 233.429 766.111 234.869Q766.017 236.31 765.888 237.747Q765.759 239.185 765.595 240.619Q765.431 242.053 765.233 243.483Q765.034 244.913 764.801 246.337Q764.567 247.762 764.299 249.18Q764.031 250.598 763.729 252.01Q763.426 253.421 763.089 254.825Q762.753 256.229 762.382 257.624Q762.011 259.019 761.606 260.404Q761.202 261.79 760.763 263.165Q760.325 264.54 759.853 265.905Q759.382 267.269 758.877 268.621Q758.372 269.974 757.835 271.313Q757.297 272.653 756.727 273.979Q756.158 275.305 755.555 276.617Q754.953 277.929 754.32 279.226Q753.686 280.523 753.021 281.804Q752.355 283.085 751.659 284.35Q750.963 285.614 750.236 286.861Q749.51 288.109 748.753 289.338Q747.996 290.567 747.209 291.777Q746.423 292.988 745.607 294.178Q744.791 295.369 743.947 296.54Q743.102 297.71 742.229 298.86Q741.357 300.01 740.456 301.138C736.492 306.017 731.94 310.378 727.546 314.863C728.589 316.748 729.572 318.692 730.844 320.435C723.69 323.526 717.507 328.552 710.047 331.086C708.101 326.395 705.936 321.867 702.574 318.004C698.729 313.587 693.548 310.396 687.582 310.159C681.052 309.899 675.255 313.134 670.597 317.421C674.073 295.829 670.735 276.287 663.127 255.907Q664.427 256.336 665.747 256.698C688.149 262.824 710.912 259.19 730.888 247.739C740.005 242.513 758.116 229.824 761.019 219.052C762.452 217.445 764.075 216.091 765.704 214.69Z"/>
	<path fill="#F36337" d="M438.857 529.852C454.205 540.331 476.572 555.606 494.505 560.376C511.795 564.975 528.988 558.891 543.947 550.215Q545.465 550.627 547.004 550.949C560.514 553.687 578.498 542.871 589.273 535.803C584.876 544.125 580.881 552.667 576.366 560.923C569.079 575.403 562.613 589.981 556.652 605.059C537.176 604.213 517.752 603.722 498.268 603.261C489.546 603.055 480.813 602.51 472.092 602.45C465.201 590.9 458.886 579.267 453.638 566.868C448.083 556.929 443.109 540.982 438.857 529.852Z"/>
	<path fill="#9FE4F4" d="M338.557 830.447C338.018 825.664 336.44 820.513 335.531 815.737Q332.865 801.069 330.499 786.35L312.013 674.304C310.186 663.43 303.46 630.244 305.021 621.356C306.019 615.672 309.394 610.822 314.171 607.641C317.946 605.128 321.987 604.539 326.428 604.423C335.024 604.198 343.757 604.742 352.355 604.967L405.802 606.378Q510.446 608.696 615.027 613L677.107 614.974C685.71 615.296 695.525 614.627 703.871 616.642C709.405 617.978 712.583 622.045 715.298 626.721C703.714 625.735 691.966 625.822 680.343 625.475Q649.911 624.651 619.493 623.393Q501.41 618.935 383.26 616.943C373.749 617.259 364.646 618.462 355.105 617.916C354.173 617.334 353.298 616.581 352.419 615.917C348.179 615.018 321.801 613.646 318.627 616.237C317.617 617.061 317.091 618.415 316.532 619.56C313.82 633.215 321.508 668.334 323.884 683.762Q333.679 745.752 342.109 807.942C342.496 810.696 346.46 833.614 346.437 833.901C346.41 834.225 346.212 834.511 346.099 834.815C346.011 834.78 345.923 834.743 345.835 834.708C343.098 833.624 340.946 832.137 338.557 830.447Z"/>
	<path fill="#966F7F" d="M352.419 615.917C362.476 616.162 373.323 615.586 383.26 616.943C373.749 617.259 364.646 618.462 355.105 617.916C354.173 617.334 353.298 616.581 352.419 615.917Z"/>
	<path fill="#921C2D" d="M242.209 237.343C243.885 237.742 245.459 238.228 247.078 238.813L249.551 241.088C261.329 253.703 274.399 262.811 292.134 263.497C305.695 264.022 319.843 259.164 331.591 252.686C336.645 249.899 341.853 246.433 347.208 244.337Q346.264 246.25 345.391 248.195Q344.517 250.141 343.715 252.117Q342.912 254.093 342.182 256.097Q341.452 258.101 340.795 260.13Q340.138 262.159 339.555 264.211Q338.972 266.262 338.464 268.334Q337.956 270.405 337.524 272.494Q337.091 274.582 336.735 276.685Q336.378 278.788 336.098 280.902Q335.818 283.016 335.615 285.139Q335.412 287.262 335.287 289.391Q335.161 291.521 335.112 293.653Q335.064 295.785 335.093 297.918Q335.122 300.05 335.228 302.18Q335.334 304.31 335.518 306.435Q335.701 308.56 335.962 310.677C327.261 312.852 320.957 318.385 316.377 325.955Q314.626 328.821 313.327 331.918Q312.027 335.015 311.208 338.272C308.098 360.715 312.552 376.071 324.265 395.298C317.803 398.554 309.356 401.178 302.199 398.825C281.935 392.164 259.165 362.107 249.6 343.032C249.034 342.129 249.225 342.614 249.021 341.58C252.309 339.102 258.469 338.261 262.41 336.682C272.987 332.445 292.919 321.442 299.964 312.447C290.39 311.318 282.44 308.914 274.772 302.862C255.872 287.945 245.046 260.632 242.209 237.343Z"/>
	<path fill="#F36337" d="M392.235 894.528C395.703 884.923 409.564 870.719 417.928 864.884C432.915 854.428 450.667 852.679 468.299 855.85C477.316 857.471 482.816 861.648 487.959 869.098C488.952 871.796 489.187 874.221 488.635 877.057C486.982 885.558 482.58 894.427 479.232 902.431Q468.884 927.346 457.49 951.8C453.077 961.356 446.196 978.46 439.822 986.121C437.222 989.246 433.615 991.911 429.756 993.249C422.454 995.782 413.334 991.428 407.001 988.008C397.861 983.071 381.326 973.914 378.3 963.878C373.784 948.896 377.993 922.379 385.438 908.888C385.532 908.718 385.64 908.556 385.742 908.39C387.446 903.702 389.422 898.667 392.235 894.528Z"/>
	<path fill="#F36337" d="M546.158 873.205C559.055 862.141 573.179 860.427 589.663 861.756C603.072 862.837 613.689 869.762 622.247 879.905C629.321 888.289 635.174 898.52 639.341 908.68C639.781 909.444 640.193 910.186 640.574 910.982C650.532 931.804 654.741 960.852 646.568 982.849C636.302 988.537 615.665 1001.91 604.915 1002.54C599.202 1002.88 594.048 1000.23 589.922 996.443C586.096 992.934 583.463 988.405 580.954 983.914C572.951 969.593 540.28 899.638 539.994 887.496C539.86 881.788 542.349 877.257 546.158 873.205Z"/>
	<path fill="#2098A6" d="M360.892 504.807C371.045 520.439 370.864 578.449 367.139 596.581C367.032 597.103 366.875 597.614 366.734 598.128C364.8 598.729 362.8 598.605 360.793 598.615Q351.733 598.625 342.679 598.292C330.235 597.807 316.244 595.775 306.56 605.592C301.148 611.08 298.397 619.032 298.556 626.669C298.807 638.749 303.059 658.651 305.255 671.192C301.39 676.405 297.318 682.47 292.187 686.469C286.712 690.736 278.379 691.261 271.933 693.556C267.015 695.306 262.484 697.667 257.917 700.174C270.363 696.287 293.131 689.611 305.48 695.982C308.054 697.31 309.297 699.035 310.047 701.802C311.57 707.424 311.86 713.357 313.211 719.017C301.218 731.082 293.216 744.796 291.834 762.009Q278.681 755.768 265.304 750.02C258.415 747.09 245.268 742.831 239.785 738.632C237.128 736.597 235.215 733.504 234.065 730.406C233.765 729.597 233.58 729.017 233.485 728.159C235.804 723.357 236.814 716.79 238.381 711.603Q242.344 698.471 247.555 685.783Q258.129 659.324 270.313 633.565Q282.496 607.807 296.241 582.847C303.114 570.353 309.976 557.647 317.916 545.79C324.127 536.515 331.567 527.607 340.252 520.53C344.844 516.788 357.822 509.443 360.411 505.592C360.582 505.337 360.732 505.069 360.892 504.807Z"/>
	<path fill="#2098A6" d="M646.642 503.897C655.272 508.171 664.223 511.746 672.931 515.852C682.742 520.477 692.294 525.681 701.835 530.834C707.005 533.627 713.191 536.322 717.612 540.215C729.005 550.247 771.783 662.006 778.638 682.327C783.292 696.122 787.857 711.161 788.514 725.783C788.788 731.894 787.332 738.434 788.162 744.424L787.842 744.739L786.692 744.245C776.502 753.277 765.446 760.913 754.83 769.363C747.931 774.854 741.416 781.225 734.297 786.378C735.108 779.493 734.842 772.252 732.768 765.602C728.616 752.285 718.84 743.3 706.783 737.016C707.95 729.725 708.855 722.383 710.207 715.123C722.934 703.15 739.997 697.167 757.326 697.502C760.04 699.005 765.766 699.166 769.044 699.918C766.046 696.301 763.123 692.892 759.166 690.285C750.13 684.331 735.674 684.598 728.722 676.318C723.779 670.431 723.092 663.391 719.478 657.499C719.324 657.248 719.16 657.005 719 656.757C720.038 649.248 722.167 641.729 722.556 634.158Q722.587 633.546 722.586 632.933Q722.585 632.32 722.553 631.708Q722.521 631.096 722.458 630.486Q722.395 629.877 722.301 629.271Q722.206 628.665 722.081 628.065Q721.956 627.465 721.8 626.873Q721.645 626.28 721.459 625.696Q721.273 625.112 721.058 624.538Q720.842 623.964 720.598 623.402Q720.353 622.84 720.08 622.291Q719.807 621.742 719.507 621.208Q719.206 620.674 718.879 620.156Q718.551 619.638 718.198 619.137Q717.844 618.636 717.465 618.154Q717.087 617.673 716.684 617.211Q716.281 616.749 715.855 616.308C713.278 613.608 710.414 612.084 706.808 611.21C698.818 609.274 689.881 609.696 681.679 609.346Q655.985 608.013 630.257 607.885C633.174 605.725 636.048 603.61 638.676 601.099C637.552 599.417 636.213 597.836 634.975 596.234C639.334 590.343 642.406 582.108 644.708 575.189C648.732 563.092 654.017 530.423 648.444 519.409C648.192 514.207 647.363 509.05 646.642 503.897Z"/>
	<path fill="#966F7F" d="M713.979 632.359C714.949 632.622 715.562 632.579 716.236 633.355L693.214 779.835Q690.178 799.324 687.442 818.858C686.148 828.253 685.219 837.83 683.023 847.065L539.773 842.293L499.405 840.974C492.941 840.76 485.772 841.128 479.429 840.069C481.795 839.901 484.23 840.269 486.57 839.752C499.1 836.983 514.976 827.435 526.315 821.384C589.875 787.468 643.977 733.821 685.733 675.671C695.851 661.582 704.566 646.869 713.979 632.359Z"/>
	<path fill="#F36337" d="M591.46 486.17C621.305 467.192 643.693 442.428 652.628 407.467C655.968 394.396 657.375 380.912 660.706 367.86C661.347 378.854 662.313 389.893 662.501 400.902C664.552 428.444 657.269 451.035 639.233 472.052Q635.57 476.36 631.469 480.253C628.909 478.593 625.81 476.007 622.811 475.456C623.927 479.081 628.823 483.343 631.345 486.242C626.052 492.09 620.111 497.583 613.378 501.731C611.773 500.198 610.404 498.522 608.997 496.813C609.267 502.001 609.674 505.373 607.002 510.055C597.748 526.267 569.434 541.04 552.006 545.838C554.362 537.901 553.863 530.353 552.547 522.287C549.459 531.088 550.726 537.366 542.109 543.575C531.306 551.36 513.392 557.472 499.987 555.018C478.414 551.068 424.101 512.396 406.634 497.36C397.905 489.846 389.233 481.609 382.829 471.996C365.854 447.973 357.458 420.792 357.498 391.443C357.506 385.56 356.651 376.219 361.052 371.82L362.204 371.286C367.43 398.173 374.446 423.191 389.365 446.503C394.67 452.915 400.413 458.545 406.543 464.153C415.837 471.281 426.085 480.388 437.3 484.089C444.085 476.193 449.819 467.543 457.499 460.409C460.868 457.28 465.397 453.517 469.905 452.279C481.201 449.176 496.338 451.204 508.191 450.974C522.049 450.704 535.852 449.418 549.734 450.064C571.851 451.095 578.593 472 591.46 486.17Z"/>
	<path fill="#FCBA98" d="M462.96 479.16L462.734 477.818C464.296 475.847 466.826 474.526 468.95 473.227C478.317 467.501 487.88 464.2 498.804 462.958C510.904 461.581 543.939 460.602 554.85 463.277C556.689 463.728 558.577 464.953 560.014 466.149C563.24 468.838 575.576 487.133 576.156 491.036C576.304 492.034 575.868 493.015 575.188 493.729C574.783 494.154 574.332 494.546 573.892 494.935C569.755 497.999 556.503 508.131 552.323 508.996L550.469 509.502C549.047 508.492 547.344 507.724 545.807 506.889C545.742 507.191 545.671 507.492 545.61 507.795C545.421 508.732 545.457 509.47 545.548 510.413C545.646 511.423 545.784 512.185 545.141 513.066C544.7 513.671 544.011 514.218 543.45 514.715Q540.909 516.223 538.262 517.536Q535.615 518.848 532.877 519.959Q530.139 521.069 527.325 521.971Q524.511 522.872 521.638 523.56C505.857 527.303 505.921 522.471 493.222 519.624C482.339 517.184 476.327 519.537 465.485 512.647C460.121 509.237 456.546 504.435 455.335 498.139C454.536 493.986 454.867 489.467 457.284 485.891C457.463 485.307 457.633 484.771 457.924 484.231C459.044 482.157 460.619 479.891 462.96 479.16Z"/>
	<path fill="#921C2D" d="M543.45 514.715Q540.909 516.223 538.262 517.536Q535.615 518.848 532.877 519.959Q530.139 521.069 527.325 521.971Q524.511 522.872 521.638 523.56C505.857 527.303 505.921 522.471 493.222 519.624C482.339 517.184 476.327 519.537 465.485 512.647C460.121 509.237 456.546 504.435 455.335 498.139C454.536 493.986 454.867 489.467 457.284 485.891C458.225 494.461 460.616 501.938 467.724 507.535C474.484 512.859 482.88 514.351 491.282 514.571C490.493 511.732 489.178 506.988 490.325 504.262C491.654 504.656 491.875 505.256 492.522 506.416C496.692 513.883 501.057 517.991 509.322 520.562Q511.913 521.357 514.536 522.038C523.691 519.471 532.952 515.242 541.211 510.546C541.353 509.008 541.258 506.569 542.327 505.432C543.779 505.447 544.64 506.128 545.807 506.889C545.742 507.191 545.671 507.492 545.61 507.795C545.421 508.732 545.457 509.47 545.548 510.413C545.646 511.423 545.784 512.185 545.141 513.066C544.7 513.671 544.011 514.218 543.45 514.715Z"/>
	<path fill="#FBF6DF" d="M462.96 479.16L462.734 477.818C464.296 475.847 466.826 474.526 468.95 473.227C478.317 467.501 487.88 464.2 498.804 462.958C510.904 461.581 543.939 460.602 554.85 463.277C556.689 463.728 558.577 464.953 560.014 466.149C563.24 468.838 575.576 487.133 576.156 491.036C576.304 492.034 575.868 493.015 575.188 493.729C574.783 494.154 574.332 494.546 573.892 494.935C569.755 497.999 556.503 508.131 552.323 508.996C557.147 503.499 564.294 498.925 569.945 494.171C568.151 487.668 559.307 482.175 558.209 474.022C556.961 471.953 555.891 470.384 553.513 469.629C554.522 473.243 553.738 478.021 551.942 481.279C547.495 489.344 536.711 494.883 528.103 497.146C507.968 502.439 491.53 496.411 474.321 486.143C471.136 484.243 467.231 481.803 464.964 478.831L462.96 479.16Z"/>
	<path fill="#921C2D" d="M462.96 479.16L462.734 477.818C464.296 475.847 466.826 474.526 468.95 473.227C478.317 467.501 487.88 464.2 498.804 462.958C510.904 461.581 543.939 460.602 554.85 463.277C556.689 463.728 558.577 464.953 560.014 466.149C563.24 468.838 575.576 487.133 576.156 491.036C576.304 492.034 575.868 493.015 575.188 493.729C574.783 494.154 574.332 494.546 573.892 494.935C569.755 497.999 556.503 508.131 552.323 508.996C557.147 503.499 564.294 498.925 569.945 494.171C568.151 487.668 559.307 482.175 558.209 474.022C556.961 471.953 555.891 470.384 553.513 469.629C530.869 466.272 506.083 465.117 483.971 471.659C493.364 479.133 505.148 481.598 516.929 480.24C523.304 479.506 529.364 477.854 535.389 475.677C538.404 474.588 541.53 473.14 544.635 472.384C545.832 472.092 546.196 472.037 547.28 472.516C547.425 473.803 547.019 474.358 546.196 475.313C539.323 483.288 524.126 486.504 514.001 486.776C501.993 487.098 489.664 483.678 480.836 475.189Q479.737 474.127 478.679 473.025Q471.61 475.429 464.964 478.831L462.96 479.16Z"/>
	<path fill="#FA9674" d="M558.209 474.022C562.227 478.541 569.678 487.667 572.057 493.091L569.945 494.171C568.151 487.668 559.307 482.175 558.209 474.022Z"/>
	<path fill="#05495D" d="M730.471 807.128C732.622 803.18 771.223 769.033 776.48 764.682C784.957 766.587 793.525 767.918 801.911 770.234C821.217 775.566 843.147 786.186 854.133 803.741C860.504 813.923 863.522 828.701 860.528 840.474C860.454 840.765 860.371 841.053 860.293 841.343C858.159 850.812 854.635 860.943 849.377 869.194C846.974 872.964 840.677 879.015 839.704 882.934C835.028 887.421 829.01 890.509 823.599 894.012C788.611 916.661 750.739 933.696 712.256 949.39C700.974 953.991 689.777 958.949 678.336 963.137C678.416 928.149 666.765 890.714 643.65 864.02C654.205 863.797 667.324 865.919 677.029 861.22C685.941 856.904 689.597 849.768 692.84 840.867C701.802 834.624 711.379 828.971 720.704 823.283C733.819 815.285 747.18 807.078 761.104 800.562C772.828 795.131 784.252 788.563 795.822 782.729C780.221 784.62 761.288 794.183 747.273 801.321C742.569 803.716 737.446 807.025 732.521 808.766C728.145 812.315 722.407 814.994 717.551 817.859Q705.788 824.789 694.4 832.32C695.132 829.323 695.886 823.583 697.952 821.33C699.759 819.359 713.459 817.514 716.935 816.129C721.882 814.157 726.229 810.278 730.471 807.128Z"/>
	<path fill="#05495D" d="M249.169 750.198C263.075 756.853 277.001 763.331 290.822 770.167C292.215 776.326 293.332 782.835 296.009 788.59C277.718 777.386 255.653 769.971 234.559 766.692C250.249 776.608 268.061 782.232 284.011 791.761C294.013 792.854 318.146 808.109 328.199 813.297C330.33 823.656 332.089 843.476 340.965 849.615C343.078 851.076 345.464 851.868 347.972 852.337C353.59 853.388 359.749 853.122 365.457 853.274C371.478 853.434 377.432 853.86 383.429 854.385C385.516 854.567 388.137 854.246 390.008 855.208C389.325 858.205 378.998 867.271 376.453 870.373C373.527 873.94 371.395 878.112 368.521 881.647C362.935 890.977 358.97 901.27 356.18 911.765C355.528 916.686 354.321 921.625 353.516 926.537C351.913 936.32 351.605 946.01 352.408 955.883C341.773 954.204 331.663 950.554 321.58 946.898C278.66 931.332 227.63 905.143 191.663 876.68C186.316 872.448 180.771 868.163 176.342 862.95C176.284 859.552 173.203 855.087 171.999 851.725Q171.033 849.043 170.234 846.307Q169.434 843.571 168.804 840.791Q168.173 838.011 167.714 835.198Q167.255 832.384 166.97 829.548Q166.684 826.712 166.573 823.864Q166.461 821.015 166.525 818.166Q166.588 815.316 166.826 812.475Q167.064 809.635 167.476 806.814C168.63 796.596 173.32 785.756 179.773 777.775C196.729 756.802 224.044 752.921 249.169 750.198Z"/>
	<path fill="#F36337" d="M430.829 149.609C431.108 147.412 430.136 144.291 429.804 142.059C426.798 121.853 430.861 99.286 443.232 82.7181C458.955 61.6604 478.961 55.234 503.899 51.6482Q502.318 53.1357 500.861 54.7456Q499.404 56.3555 498.082 58.0773Q496.76 59.7991 495.58 61.6217Q494.4 63.4443 493.371 65.3559C482.745 84.8789 481.3 104.67 487.524 125.698C485.14 131.978 482.426 137.844 480.803 144.409C487.183 135.623 491.548 128.343 499.885 121.058C532.482 92.5778 579.735 84.8349 620.45 98.8275C624.737 100.301 648.087 110.377 650.283 110.429C650.539 110.435 650.795 110.426 651.051 110.425L651.482 110.945C639.901 128.301 571.368 158.322 550.576 167.141C572.844 161.603 594.283 153.015 614.957 143.151C641.167 158.057 672.575 172.153 703.229 165.753L702.661 169.434C690.331 183.794 674.867 189.733 656.267 191.225Q651.185 191.677 646.092 191.389C648.004 192.611 649.918 194.039 652.067 194.797C653.566 195.582 655.267 196.3 656.65 197.262L656.508 197.917C677.978 216.197 704.479 230.234 733.362 227.795C742.91 226.989 752.965 224.444 761.019 219.052C758.116 229.824 740.005 242.513 730.888 247.739C710.912 259.19 688.149 262.824 665.747 256.698Q664.427 256.336 663.127 255.907C658.972 244.675 651.511 233.661 642.497 225.783C626.973 212.215 606.819 204.85 586.204 206.243L586.426 206.626L586.564 205.212L586.316 205.769L587.398 206.63C588.534 206.256 588.316 206.371 589.318 206.809L588.841 207.303C591.442 209.457 597.624 210.236 600.939 211.69C608.183 214.869 615.064 219.314 621.192 224.296C636.483 236.728 650.155 256.958 657.652 275.201C658.949 278.357 663.833 292.703 664.76 294.012C664.967 293.348 665.139 292.744 665.263 292.057C666.07 299.206 666.445 306.965 664.765 314.02C661.406 311.322 658.46 305.627 655.88 302.07C652.057 296.801 648.11 291.569 643.745 286.734C633.226 275.086 621.744 263.441 609.482 253.641C599.467 245.638 588.733 238.692 578.177 231.446C572.677 227.671 567.463 223.3 561.782 219.834C557.645 214.185 554.167 208.074 550.599 202.056C556.803 223.71 566.537 242.034 579.347 260.434C575.78 261.332 556.936 254.184 552.491 252.49C521.069 240.517 484.311 218.835 463.616 191.756C458.414 184.95 454.717 177.886 451.234 170.116C450.674 173.712 450.333 177.342 450.565 180.979C450.509 185.141 450.775 189.158 451.284 193.29C449.585 199.748 445.931 205.741 441.482 210.669C431.517 221.706 418.283 230.58 406.312 239.371C391.413 250.312 376.437 261.613 363.384 274.761C357.616 280.57 352.36 287.077 348.193 294.133C346.779 296.528 345.814 299.215 344.376 301.553C344.097 299.854 344.183 298.067 344.303 296.354C346.081 270.913 358.194 235.909 378.379 219.071C378.607 218.881 378.839 218.697 379.069 218.509L378.865 217.799C374.474 217.216 367.549 222.094 364.173 224.696C357.231 230.044 351.74 236.885 347.208 244.337C341.853 246.433 336.645 249.899 331.591 252.686C319.843 259.164 305.695 264.022 292.134 263.497C274.399 262.811 261.329 253.703 249.551 241.088C255.584 242.603 260.213 245.258 266.722 245.061C297.073 244.144 318.511 194.015 343.584 179.069C353.728 173.023 365.701 168.358 377.629 168.027C381.617 167.916 386.905 168.635 390.715 167.46C391.006 167.37 391.292 167.264 391.58 167.166C401.993 168.942 412.258 173.311 422.16 176.944C415.215 171.82 407.729 167.891 399.949 164.23C397.168 160.637 391.312 158.425 387.302 156.312C371.879 148.183 354.422 140.129 343.75 125.824C341.541 122.863 337.536 117.705 338.093 113.926C338.748 114.506 339.631 115.124 340.173 115.796C340.94 118.603 344.896 121.726 347.354 123.056C364.264 132.203 382.572 124.592 400.239 127.136C407.086 128.122 412.989 132.659 418.887 133.599C423.893 144.639 428.61 152.002 437.986 159.788C435.965 157.19 431.646 152.676 430.829 149.609Z"/>
	<defs>
		<linearGradient id="gradient_1" gradientUnits="userSpaceOnUse" x1="372.68048" y1="297.63571" x2="622.57526" y2="452.4097">
			<stop offset="0" stop-color="#F2A685"/>
			<stop offset="1" stop-color="#FFE7C8"/>
		</linearGradient>
	</defs>
	<path fill="url(#gradient_1)" d="M401.458 272.664C410.035 264.787 419.388 257.63 428.449 250.311C439.66 241.255 450.975 231.73 462.986 223.765C486.696 255.834 525.882 275.778 564.469 283.352C554.71 289.119 547.184 298.349 544.205 309.469C543.789 311.021 543.542 312.896 544.461 314.324C545.11 315.331 545.517 315.499 546.56 315.974C548.631 315.799 550.117 314.687 551.86 313.641C555.953 311.185 560.914 309.636 565.498 308.38C580.595 304.245 593.6 304.508 608.716 308.411C614.176 309.82 619.603 311.49 624.965 313.228C630.123 317.309 635.517 320.423 640.948 324.089C645.903 327.433 650.652 331.069 655.809 334.103C655.85 336.101 655.829 338.115 656.023 340.104C656.001 342.316 655.803 344.546 655.614 346.748C654.828 355.888 653.433 365.004 652.103 374.079C648.333 399.786 643.55 425.254 627.193 446.378C617.663 458.686 605.527 468.736 593.703 478.732C585.835 469.68 580.36 458.196 570.708 450.693C566.307 447.272 560.336 445.238 554.809 444.661C539.573 443.072 523.991 447.231 508.731 447.437C496.483 447.603 483.599 444.005 471.443 445.746C455.865 447.977 443.572 466.008 434.833 477.85C422.761 470.506 411.422 462.991 401.713 452.558C371.981 420.608 365.539 362.174 366.933 320.156C366.408 315.372 366.656 310.407 366.743 305.597C371.41 300.392 376.706 295.652 381.757 290.823C388.197 284.665 394.584 278.341 401.458 272.664Z"/>
	<path fill="#FA9674" d="M401.458 272.664C400.35 277.226 384.812 288.279 381.131 293.062C380.36 294.063 379.998 295.385 379.552 296.554C379.168 297.56 378.864 297.949 378.09 298.653C376.759 298.953 376.728 298.306 375.859 298.42C373.904 298.674 369.256 304.225 367.796 305.783C367.581 310.49 367.653 315.508 366.933 320.156C366.408 315.372 366.656 310.407 366.743 305.597C371.41 300.392 376.706 295.652 381.757 290.823C388.197 284.665 394.584 278.341 401.458 272.664Z"/>
	<path fill="#921C2D" d="M470.649 380.632C471.182 381.295 471.069 381.423 471.955 381.57C469.923 391.638 464.52 401.05 455.831 406.765C447.979 411.928 438.406 413.375 429.279 411.358C422.729 409.911 416.514 406.459 411.35 402.231L412.013 401.433Q414.403 403.333 417.039 404.872Q419.675 406.412 422.504 407.56C430.924 410.984 440.357 411.711 448.831 408.063C459.317 403.549 465.338 394.436 469.489 384.211L470.649 380.632Z"/>
	<path fill="#FCBA98" d="M602.473 414.148C603.157 414.037 603.63 414.104 604.311 414.191L604.266 414.934C602.614 416.347 600.74 417.409 598.796 418.373C589.628 422.917 579.108 422.584 569.659 419.424C569.468 419.311 569.272 419.205 569.085 419.084C567.814 418.258 566.455 417.262 566.077 415.78C567.953 414.884 581.761 416.905 585.696 416.817C591.364 416.689 596.919 415.167 602.473 414.148Z"/>
	<path fill="#921C2D" d="M507.049 411.213C509.753 411.335 512.867 411.106 515.113 412.806L514.826 413.536C510.788 415.497 505.833 415.291 501.577 416.947C499.234 417.858 496.631 419.339 495.765 421.865C495.049 423.956 495.828 426.139 496.895 427.952C500.274 433.689 505.962 435.44 512.046 436.884L512.292 437.217L512.01 437.883C510.698 438.544 509.421 439.146 507.946 439.328C503.966 439.818 499.989 438.405 496.913 435.913C493.311 432.995 490.87 428.551 490.592 423.897C490.407 420.799 491.256 417.819 493.404 415.528C496.982 411.71 502.186 411.505 507.049 411.213Z"/>
	<defs>
		<linearGradient id="gradient_2" gradientUnits="userSpaceOnUse" x1="447.16345" y1="407.94189" x2="429.40112" y2="378.7403">
			<stop offset="0" stop-color="#8FA7D0"/>
			<stop offset="1" stop-color="#C9EEF1"/>
		</linearGradient>
	</defs>
	<path fill="url(#gradient_2)" d="M467.286 382.066L469.489 384.211C465.338 394.436 459.317 403.549 448.831 408.063C440.357 411.711 430.924 410.984 422.504 407.56Q419.675 406.412 417.039 404.872Q414.403 403.333 412.013 401.433C406.507 396.952 402.285 390.534 401.112 383.486C401.257 383.674 401.406 383.857 401.547 384.048C403.444 386.615 403.293 390.239 406.636 391.578C410.095 390.82 414.594 387.133 417.756 385.316C420.982 392.045 425.187 397.761 432.504 400.455C437.393 401.852 442.37 402.06 447.282 400.6C456.706 397.799 462.917 390.483 467.286 382.066Z"/>
	<path fill="#46073A" d="M411.35 402.231C407.007 399.069 403.092 395.333 400.115 390.843C393.538 380.923 392.009 367.903 394.334 356.381C396.787 344.226 403.589 332.951 414.04 326.091C422.324 320.654 432.683 318.194 442.465 320.24C452.416 322.321 460.376 329.132 465.741 337.561C473.838 350.279 475.167 367.111 471.955 381.57C471.069 381.423 471.182 381.295 470.649 380.632C473.69 367.006 472.95 353.14 465.199 341.092C460.072 333.124 452.499 327.059 443.097 325.161C434.006 323.326 424.949 325.544 417.333 330.735C407.914 337.154 401.835 347.277 399.729 358.409C398.522 364.79 397.808 376.917 400.74 382.96C400.834 383.153 400.988 383.311 401.112 383.486C402.285 390.534 406.507 396.952 412.013 401.433L411.35 402.231Z"/>
	<path fill="#FBF6DF" d="M401.112 383.486C400.988 383.311 400.834 383.153 400.74 382.96C397.808 376.917 398.522 364.79 399.729 358.409C401.835 347.277 407.914 337.154 417.333 330.735C424.949 325.544 434.006 323.326 443.097 325.161C452.499 327.059 460.072 333.124 465.199 341.092C472.95 353.14 473.69 367.006 470.649 380.632L469.489 384.211L467.286 382.066C469.965 375.89 470.756 368.424 469.496 361.816C468.029 354.12 463.688 346.594 457.021 342.306Q456.527 341.982 456.016 341.684Q455.506 341.385 454.982 341.113Q454.457 340.84 453.92 340.595Q453.382 340.349 452.833 340.13Q452.284 339.912 451.724 339.722Q451.165 339.531 450.596 339.369Q450.028 339.207 449.452 339.074Q448.876 338.941 448.294 338.837Q447.712 338.733 447.126 338.658Q446.54 338.584 445.95 338.539Q445.361 338.494 444.77 338.478Q444.179 338.463 443.588 338.478Q442.998 338.492 442.408 338.536Q441.819 338.58 441.232 338.654Q440.646 338.728 440.064 338.831Q439.482 338.935 438.906 339.067C430.719 341.022 425.021 347.172 420.728 354.03C418.841 357.831 416.851 362.085 416.508 366.384C415.286 372.864 415.517 379.073 417.756 385.316C414.594 387.133 410.095 390.82 406.636 391.578C403.293 390.239 403.444 386.615 401.547 384.048C401.406 383.857 401.257 383.674 401.112 383.486Z"/>
	<path fill="#46073A" d="M436.131 276.708C446.096 275.819 457.526 278.786 465.282 285.227C472.047 290.845 477.132 300.933 477.658 309.745C477.752 311.323 477.658 312.922 476.442 314.072C475.377 315.081 474.324 314.563 473.106 314.152C469.534 312.947 466.064 311.395 462.46 310.288C451.284 306.854 439.499 305.537 427.853 305.605C414.206 306.735 403.977 309.008 392.096 315.919C390.741 315.827 389.205 315.679 388.11 314.762C387.014 313.846 386.657 312.902 386.594 311.499C386.376 306.642 391.506 299.098 394.617 295.53C404.834 283.814 420.951 277.834 436.131 276.708Z"/>
	<path fill="#F36337" d="M436.281 282.709C444.343 281.857 454.313 284.03 461.13 288.464C468.602 293.323 472.447 300.509 474.254 309.052C460.982 305.001 448.31 301.726 434.421 300.533C420.242 300.235 406.769 302.788 393.666 308.189Q394.599 306.057 395.823 304.079Q397.048 302.1 398.54 300.315C407.663 289.49 422.528 283.981 436.281 282.709Z"/>
	<defs>
		<linearGradient id="gradient_3" gradientUnits="userSpaceOnUse" x1="437.8111" y1="354.39908" x2="438.09622" y2="393.41525">
			<stop offset="0" stop-color="#03366B"/>
			<stop offset="1" stop-color="#1890AD"/>
		</linearGradient>
	</defs>
	<path fill="url(#gradient_3)" d="M420.728 354.03C425.021 347.172 430.719 341.022 438.906 339.067Q439.482 338.935 440.064 338.831Q440.646 338.728 441.232 338.654Q441.819 338.58 442.408 338.536Q442.998 338.492 443.588 338.478Q444.179 338.463 444.77 338.478Q445.361 338.494 445.95 338.539Q446.54 338.584 447.126 338.658Q447.712 338.733 448.294 338.837Q448.876 338.941 449.452 339.074Q450.028 339.207 450.596 339.369Q451.165 339.531 451.724 339.722Q452.284 339.912 452.833 340.13Q453.382 340.349 453.92 340.595Q454.457 340.84 454.982 341.113Q455.506 341.385 456.016 341.684Q456.527 341.982 457.021 342.306C463.688 346.594 468.029 354.12 469.496 361.816C470.756 368.424 469.965 375.89 467.286 382.066C462.917 390.483 456.706 397.799 447.282 400.6C442.37 402.06 437.393 401.852 432.504 400.455C425.187 397.761 420.982 392.045 417.756 385.316C415.517 379.073 415.286 372.864 416.508 366.384C416.851 362.085 418.841 357.831 420.728 354.03Z"/>
	<path fill="#FBF6DF" d="M442.365 366.839L442.864 366.982C443.638 367.632 444.553 368.333 444.994 369.266C445.546 370.432 445.445 372.028 445.048 373.225C444.654 374.411 443.853 375.448 442.636 375.872C441.202 376.37 439.487 375.964 438.183 375.275C437.378 374.851 436.597 374.084 436.419 373.167C436.188 371.979 436.568 370.864 437.202 369.866C438.456 367.892 440.177 367.281 442.365 366.839Z"/>
	<path fill="#46073A" d="M420.728 354.03L421.859 356.025C419.513 361.208 418.602 366.44 418.063 372.076C418.642 380.494 420.219 387.49 425.77 394.134C427.793 395.875 429.863 397.331 432.277 398.485L432.504 400.455C425.187 397.761 420.982 392.045 417.756 385.316C415.517 379.073 415.286 372.864 416.508 366.384C416.851 362.085 418.841 357.831 420.728 354.03Z"/>
	<path fill="#2098A6" d="M425.77 394.134C430.696 392.174 448.438 391.617 453.735 392.861C454.574 393.694 454.296 393.211 454.61 394.287C451.943 397.616 448.438 399.39 444.215 399.915C440.002 400.438 436.238 399.862 432.277 398.485C429.863 397.331 427.793 395.875 425.77 394.134Z"/>
	<defs>
		<linearGradient id="gradient_4" gradientUnits="userSpaceOnUse" x1="468.50546" y1="366.72632" x2="424.01477" y2="366.77771">
			<stop offset="0" stop-color="#45053B"/>
			<stop offset="1" stop-color="#2C1F61"/>
		</linearGradient>
	</defs>
	<path fill="url(#gradient_4)" d="M420.728 354.03C425.021 347.172 430.719 341.022 438.906 339.067Q439.482 338.935 440.064 338.831Q440.646 338.728 441.232 338.654Q441.819 338.58 442.408 338.536Q442.998 338.492 443.588 338.478Q444.179 338.463 444.77 338.478Q445.361 338.494 445.95 338.539Q446.54 338.584 447.126 338.658Q447.712 338.733 448.294 338.837Q448.876 338.941 449.452 339.074Q450.028 339.207 450.596 339.369Q451.165 339.531 451.724 339.722Q452.284 339.912 452.833 340.13Q453.382 340.349 453.92 340.595Q454.457 340.84 454.982 341.113Q455.506 341.385 456.016 341.684Q456.527 341.982 457.021 342.306C463.688 346.594 468.029 354.12 469.496 361.816C470.756 368.424 469.965 375.89 467.286 382.066C462.917 390.483 456.706 397.799 447.282 400.6C442.37 402.06 437.393 401.852 432.504 400.455L432.277 398.485C436.238 399.862 440.002 400.438 444.215 399.915C448.438 399.39 451.943 397.616 454.61 394.287C457.006 391.458 458.113 388.788 457.92 385.034C457.652 379.822 454.589 374.285 450.687 370.843C448.637 369.035 445.631 366.858 442.864 366.982L442.365 366.839L440.855 365.415C440.681 365.366 440.505 365.318 440.331 365.267L439.496 365.014C437.089 364.307 434.987 363.315 433.148 361.553C430.442 358.961 430.036 355.603 429.951 352.038L429.622 352.839C429.293 353.653 429.09 354.429 428.923 355.294C427.521 355.4 426.205 354.895 424.872 354.512C424.494 353.535 424.522 353.374 424.71 352.335C423.543 353.491 422.729 354.636 421.859 356.025L420.728 354.03Z"/>
	<path fill="#FBF6DF" d="M429.951 352.038C431.401 348.297 433.523 344.841 437.383 343.195C440.133 342.022 443.26 342.205 445.973 343.398C448.762 344.625 450.954 347.042 452.017 349.886C453.07 352.704 453.044 356.163 451.718 358.887C450.324 361.755 447.237 363.96 444.196 364.785C443.107 365.081 441.97 365.245 440.855 365.415C440.681 365.366 440.505 365.318 440.331 365.267L439.496 365.014C437.089 364.307 434.987 363.315 433.148 361.553C430.442 358.961 430.036 355.603 429.951 352.038Z"/>
	<defs>
		<linearGradient id="gradient_5" gradientUnits="userSpaceOnUse" x1="562.06732" y1="399.32498" x2="612.09406" y2="329.86838">
			<stop offset="0" stop-color="#640A3C"/>
			<stop offset="1" stop-color="#4A0540"/>
		</linearGradient>
	</defs>
	<path fill="url(#gradient_5)" d="M582.77 319.667Q584.307 319.498 585.853 319.455Q587.399 319.411 588.943 319.495Q590.487 319.578 592.02 319.786Q593.552 319.995 595.062 320.328Q596.572 320.661 598.05 321.116Q599.528 321.572 600.964 322.146Q602.4 322.72 603.784 323.409Q605.169 324.099 606.492 324.899Q607.463 325.478 608.405 326.105Q609.346 326.732 610.255 327.405Q611.164 328.078 612.038 328.796Q612.912 329.513 613.75 330.273Q614.587 331.033 615.386 331.834Q616.184 332.635 616.942 333.474Q617.7 334.314 618.415 335.19Q619.13 336.066 619.801 336.977Q620.471 337.888 621.096 338.831Q621.72 339.774 622.297 340.746Q622.874 341.719 623.401 342.72Q623.929 343.72 624.406 344.745Q624.883 345.771 625.309 346.818Q625.735 347.866 626.108 348.934Q626.48 350.002 626.8 351.087Q627.119 352.172 627.384 353.271C630.545 366.345 626.86 380.702 619.862 391.94C613.222 402.603 604.377 408.642 592.209 411.432C581.741 412.43 572.994 410.611 564.343 404.347C554.981 397.568 549.396 386.899 547.703 375.583C545.584 361.423 548.414 346.027 557.105 334.445C563.561 325.841 572.192 321.119 582.77 319.667Z"/>
	<path fill="#8C9AC1" d="M555.705 373.782C557.069 379.634 559.015 384.342 562.232 389.422C567.114 395.114 572.993 400.549 580.906 400.999C583.802 401.164 586.625 400.872 589.451 400.227C592.859 399.338 595.614 397.334 598.454 395.353C601.401 397.737 604.797 399.164 608.3 400.515Q606.272 402.267 604.023 403.725Q601.775 405.182 599.348 406.319C591.613 409.896 582.934 410.599 574.896 407.542C568.076 404.949 559.346 398.838 556.242 392.058C552.616 386.583 550.661 380.799 549.308 374.411C551.457 374.277 553.571 374.068 555.705 373.782Z"/>
	<path fill="#9FE4F4" d="M555.705 373.782C557.069 379.634 559.015 384.342 562.232 389.422L561.451 389.679C560.668 388.546 560.012 387.474 559.383 386.248C558.716 384.95 557.974 383.728 556.466 383.337C555.256 383.024 554.658 383.209 553.48 383.48L553.007 384.155C554.06 386.251 556.431 389.738 556.242 392.058C552.616 386.583 550.661 380.799 549.308 374.411C551.457 374.277 553.571 374.068 555.705 373.782Z"/>
	<path fill="#FBF6DF" d="M548.869 361.894C549.883 350.671 554.359 339.539 563.177 332.159Q563.827 331.619 564.503 331.111Q565.179 330.603 565.879 330.129Q566.579 329.654 567.301 329.215Q568.023 328.775 568.766 328.371Q569.508 327.967 570.27 327.599Q571.031 327.231 571.809 326.901Q572.588 326.571 573.381 326.279Q574.175 325.988 574.982 325.735Q575.788 325.482 576.606 325.268Q577.424 325.055 578.252 324.882Q579.079 324.708 579.914 324.575Q580.749 324.443 581.59 324.35Q582.43 324.258 583.274 324.207Q584.118 324.156 584.963 324.146Q585.809 324.136 586.654 324.167Q587.499 324.198 588.341 324.27C598.249 325.155 607.44 330.91 613.645 338.522C621.126 347.701 624.92 359.364 623.688 371.183C623.001 377.779 620.748 383.867 617.543 389.636C613.037 387.778 610.714 383.629 608.021 379.83C610.354 371.7 608.412 361.765 604.623 354.38C600.939 347.201 595.63 342.31 587.83 339.82C582.294 337.712 576.443 337.642 571.029 340.165C564.073 343.407 559.132 349.93 556.729 357.096C556.072 359.056 555.624 361.193 555.381 363.245C555.137 366.792 555.313 370.248 555.705 373.782C553.571 374.068 551.457 374.277 549.308 374.411C548.78 370.188 548.41 366.14 548.869 361.894Z"/>
	<defs>
		<linearGradient id="gradient_6" gradientUnits="userSpaceOnUse" x1="583.91479" y1="359.40771" x2="586.73047" y2="397.03375">
			<stop offset="0" stop-color="#063D6F"/>
			<stop offset="1" stop-color="#278AB2"/>
		</linearGradient>
	</defs>
	<path fill="url(#gradient_6)" d="M555.381 363.245C555.624 361.193 556.072 359.056 556.729 357.096C559.132 349.93 564.073 343.407 571.029 340.165C576.443 337.642 582.294 337.712 587.83 339.82C595.63 342.31 600.939 347.201 604.623 354.38C608.412 361.765 610.354 371.7 608.021 379.83C610.714 383.629 613.037 387.778 617.543 389.636C615.015 393.918 611.923 397.137 608.3 400.515C604.797 399.164 601.401 397.737 598.454 395.353C595.614 397.334 592.859 399.338 589.451 400.227C586.625 400.872 583.802 401.164 580.906 400.999C572.993 400.549 567.114 395.114 562.232 389.422C559.015 384.342 557.069 379.634 555.705 373.782C555.313 370.248 555.137 366.792 555.381 363.245Z"/>
	<path fill="#2098A6" d="M573.885 396.831C574.671 396.859 574.387 396.82 575.073 396.939C581.016 397.977 588.154 397.008 594.062 395.837C592.422 396.928 590.908 397.679 589.052 398.34C588.751 398.425 588.45 398.515 588.147 398.594C583.437 399.827 578.078 399.319 573.885 396.831Z"/>
	<path fill="#FBF6DF" d="M579.455 366.936C581.263 367.042 582.927 367.207 584.214 368.676C585.035 369.613 585.377 370.816 585.096 372.038C584.641 374.017 583.191 374.893 581.585 375.846C581.355 375.82 581.124 375.805 580.895 375.769C579.282 375.513 577.562 374.747 576.711 373.262C576.073 372.15 575.823 371.066 576.284 369.83C576.868 368.264 578.081 367.662 579.455 366.936Z"/>
	<path fill="#FBF6DF" d="M587.034 342.46C591.126 343.377 595.171 344.971 597.445 348.743C598.784 350.964 599.337 353.333 599.351 355.911C598.137 359.533 596.76 362.231 593.226 364.039C590.645 365.359 587.756 365.487 585.057 364.446C582.235 363.358 580.656 361.427 579.15 358.913C578.226 355.715 577.982 352.019 579.346 348.905C580.901 345.357 583.6 343.873 587.034 342.46Z"/>
	<path fill="#46073A" d="M587.83 339.82C595.63 342.31 600.939 347.201 604.623 354.38C608.412 361.765 610.354 371.7 608.021 379.83C610.714 383.629 613.037 387.778 617.543 389.636C615.015 393.918 611.923 397.137 608.3 400.515C604.797 399.164 601.401 397.737 598.454 395.353C595.614 397.334 592.859 399.338 589.451 400.227L589.052 398.34C590.908 397.679 592.422 396.928 594.062 395.837C597.928 394.228 601.048 389.702 602.77 386.041C606.09 378.98 606.784 368.904 603.86 361.604C602.95 359.335 601.674 356.922 599.351 355.911C599.337 353.333 598.784 350.964 597.445 348.743C595.171 344.971 591.126 343.377 587.034 342.46C588.272 342.251 589.595 342.326 590.85 342.305C589.927 341.382 588.861 340.617 587.83 339.82Z"/>
	<path fill="#9FE4F4" d="M608.021 379.83C610.714 383.629 613.037 387.778 617.543 389.636C615.015 393.918 611.923 397.137 608.3 400.515C604.797 399.164 601.401 397.737 598.454 395.353C603.096 390.991 606.167 385.895 608.021 379.83Z"/>
	<path fill="#46073A" d="M555.381 363.245C555.624 361.193 556.072 359.056 556.729 357.096C559.132 349.93 564.073 343.407 571.029 340.165C576.443 337.642 582.294 337.712 587.83 339.82C588.861 340.617 589.927 341.382 590.85 342.305C589.595 342.326 588.272 342.251 587.034 342.46C583.6 343.873 580.901 345.357 579.346 348.905C577.982 352.019 578.226 355.715 579.15 358.913C576.278 358.99 574.884 359.896 572.923 361.974C568.09 367.098 565.137 375.928 565.42 382.929C565.596 387.28 566.925 391.783 570.326 394.697C571.291 395.524 572.592 396.589 573.885 396.831C578.078 399.319 583.437 399.827 588.147 398.594C588.45 398.515 588.751 398.425 589.052 398.34L589.451 400.227C586.625 400.872 583.802 401.164 580.906 400.999C572.993 400.549 567.114 395.114 562.232 389.422C559.015 384.342 557.069 379.634 555.705 373.782C555.313 370.248 555.137 366.792 555.381 363.245Z"/>
	<path fill="#8C9AC1" d="M316.532 619.56C317.091 618.415 317.617 617.061 318.627 616.237C321.801 613.646 348.179 615.018 352.419 615.917C353.298 616.581 354.173 617.334 355.105 617.916C364.646 618.462 373.749 617.259 383.26 616.943Q501.41 618.935 619.493 623.393Q649.911 624.65 680.343 625.475C691.966 625.822 703.714 625.735 715.298 626.721C715.972 628.713 716.542 631.259 716.236 633.355C715.562 632.579 714.949 632.622 713.979 632.359C704.566 646.869 695.851 661.582 685.733 675.671C643.977 733.821 589.875 787.468 526.315 821.384C514.976 827.435 499.1 836.983 486.57 839.752C484.23 840.269 481.795 839.901 479.429 840.069C453.976 840.076 428.382 838.4 402.935 837.529L372.842 836.494C364.16 836.191 355.584 836.141 347.008 834.588C346.76 834.778 346.405 834.751 346.099 834.815C346.212 834.511 346.41 834.225 346.437 833.901C346.46 833.614 342.496 810.696 342.109 807.942Q333.679 745.752 323.884 683.762C321.508 668.334 313.82 633.215 316.532 619.56Z"/>
	<path fill="#5B4C7B" d="M383.26 616.943Q501.41 618.935 619.493 623.393Q649.911 624.65 680.343 625.475C691.966 625.822 703.714 625.735 715.298 626.721C715.972 628.713 716.542 631.259 716.236 633.355C715.562 632.579 714.949 632.622 713.979 632.359C705.502 632.827 696.67 632.137 688.173 631.892Q660.564 631.013 632.968 629.796L489.382 624.564L368.875 620.342Q355.636 619.837 342.389 619.693C335.073 619.592 327.544 619.761 320.292 618.722C322.719 616.778 350.268 617.898 355.105 617.916C364.646 618.462 373.749 617.259 383.26 616.943Z"/>
	<path fill="#46073A" d="M504.339 703.611C513.803 702.742 522.821 704.783 530.691 710.208Q531.494 710.756 532.269 711.344Q533.044 711.932 533.788 712.558Q534.532 713.183 535.245 713.845Q535.957 714.508 536.635 715.204Q537.313 715.901 537.956 716.631Q538.598 717.361 539.204 718.122Q539.809 718.883 540.376 719.674Q540.942 720.464 541.469 721.282Q541.995 722.1 542.48 722.943Q542.964 723.786 543.407 724.652Q543.849 725.518 544.247 726.405Q544.645 727.292 544.999 728.198Q545.352 729.104 545.66 730.027Q545.968 730.949 546.229 731.886Q546.49 732.823 546.704 733.771Q546.919 734.72 547.085 735.678C549.063 746.822 546.858 758.152 540.258 767.407C533.745 776.538 524.576 781.038 513.742 782.932C504.436 783.825 495.709 782.03 487.81 776.906Q486.983 776.365 486.183 775.783Q485.384 775.202 484.614 774.582Q483.844 773.961 483.106 773.304Q482.367 772.647 481.662 771.954Q480.957 771.262 480.287 770.535Q479.616 769.808 478.983 769.05Q478.349 768.291 477.753 767.502Q477.158 766.713 476.602 765.896Q476.045 765.078 475.53 764.235Q475.015 763.391 474.542 762.523Q474.069 761.655 473.639 760.765Q473.209 759.875 472.824 758.964Q472.438 758.054 472.098 757.126Q471.758 756.198 471.464 755.254Q471.17 754.31 470.922 753.353Q470.675 752.396 470.475 751.428C468.395 741.04 470.698 729.382 476.633 720.605C483.209 710.879 493.054 705.804 504.339 703.611Z"/>
	<path fill="#966F7F" d="M508.469 708.224C516.764 708.41 524.301 710.677 530.713 716.084C537.908 722.152 542.024 731.12 542.762 740.421C543.527 750.073 540.844 759.448 534.432 766.801C527.917 774.271 519.607 777.872 509.85 778.614C501.23 778.577 493.433 775.947 486.87 770.283Q486.221 769.727 485.601 769.14Q484.981 768.553 484.39 767.936Q483.8 767.319 483.241 766.674Q482.681 766.028 482.155 765.356Q481.628 764.683 481.135 763.986Q480.642 763.288 480.185 762.567Q479.727 761.846 479.305 761.103Q478.884 760.361 478.5 759.598Q478.115 758.835 477.769 758.054Q477.423 757.273 477.116 756.477Q476.809 755.68 476.542 754.868Q476.274 754.057 476.048 753.234Q475.821 752.411 475.635 751.577Q475.449 750.743 475.304 749.901Q475.16 749.06 475.057 748.212Q474.955 747.364 474.894 746.512C474.214 736.825 476.61 727.596 483.062 720.202C489.78 712.504 498.415 708.842 508.469 708.224Z"/>
</svg>
