<?xml version="1.0" encoding="utf-8" ?>
<svg xmlns="http://www.w3.org/2000/svg" xmlns:xlink="http://www.w3.org/1999/xlink" width="1024" height="1024">
	<path fill="#65D0D2" d="M0 0L1024 0L1024 1024L0 1024L0 0Z"/>
	<path fill="#1F0A4B" d="M456.155 79.7744C459.684 80.4732 468.426 89.452 472.155 92.0201Q473.825 93.1883 475.559 94.2584Q477.294 95.3285 479.087 96.297Q480.88 97.2655 482.726 98.1291Q484.572 98.9928 486.464 99.7487Q488.357 100.505 490.29 101.15Q492.222 101.796 494.189 102.329Q496.156 102.863 498.151 103.282Q500.145 103.701 502.16 104.005C534.127 109.094 553.088 92.8576 586.196 106.188C614.132 117.436 632.459 137.575 644.039 164.887C647.757 163.619 651.562 162.041 654.342 159.17C662.433 150.814 656.389 141.151 656.377 131.714C657.218 130.881 657.655 130.452 658.959 130.466C661.296 130.491 663.796 132.873 665.314 134.419C678.036 147.371 689.742 165.534 689.298 184.344C689.041 195.209 684.501 202.061 676.823 209.404C681.525 212.659 686.04 216.401 689.945 220.583C701.716 233.189 706.479 249.423 705.868 266.382C714.421 269.046 723.597 272.028 732.412 269.254C734.229 268.682 737.678 267.088 739.485 267.258C739.942 267.301 739.965 267.349 740.229 267.757C741.655 269.959 740.519 274.303 740.053 276.725C735.772 298.938 730.468 313.32 711.115 326.375C715.67 328.469 720.287 330.466 724.636 332.97C722.015 341.09 718.541 348.86 714.88 356.555C724.912 367.175 727.566 382.716 728.613 396.791C730.538 422.677 726.295 452.812 708.652 473.034C697.249 486.104 680.379 490.682 663.622 491.766C663.385 492.137 663.149 492.51 662.902 492.875C651.424 509.851 632.014 523.325 611.84 527.249C609.259 532.846 608.011 539.024 605.357 544.631C604.172 547.135 602.808 550.232 600.05 551.235C596.516 550.226 592.287 542.37 590.134 539.366C583.622 542.222 577.142 544.96 570.492 547.489C583.259 553.096 604.134 563.072 613.453 573.299C615.754 575.823 617.608 578.979 617.311 582.517C616.98 586.46 614.422 588.934 611.628 591.384C616.173 595.377 619.101 600.826 623.796 604.585C631.587 610.823 641.096 613.595 648.071 621.24C656.996 631.023 663.658 644.517 669.779 656.213C688.821 692.601 710.06 739.661 708.413 781.487C708.315 781.654 708.222 781.825 708.118 781.989C698.123 797.705 665.214 813.261 647.033 818.602C640.618 820.487 634.058 821.142 627.604 822.755L626.973 822.918C627.792 826.97 629.372 831.023 630.606 834.98C632.624 841.448 634.302 847.821 635.445 854.512C633.086 858.181 630 860.895 626.781 863.78C627.435 875.628 628.975 887.232 628.982 899.147C612.218 917.511 550.49 938.361 525.334 942.887C522.506 938.89 520.436 934.494 518.238 930.134C517.82 929.528 517.351 928.984 516.878 928.421C513.437 927.389 508.984 928.136 505.424 928.362C503.507 932.245 502.17 936.791 499.668 940.332C498.81 941.547 498.214 942.263 496.667 942.403C493.103 942.727 487.555 940.346 483.956 939.449C454.961 932.216 420.535 920.27 396.358 902.319C396.413 889.78 398.192 876.749 399.679 864.297C394.85 861.36 390 856.894 386.589 852.368C388.881 843.446 391.823 834.689 394.258 825.804Q397.957 811.861 400.858 797.731C395.127 796.963 389.922 795.484 384.528 793.421Q381.94 796.802 378.612 799.458C366.309 809.089 347.503 813.993 332.049 812.007C322.505 810.781 314.181 806.473 308.293 798.765C300.473 788.527 298.611 774.588 300.319 762.108C301.317 754.817 304.219 744.929 309.051 739.282C311.449 736.48 314.765 733.749 316.4 730.462C320.669 721.877 323.874 712.571 327.962 703.844C341.114 675.771 359.161 641.066 380.648 618.424C390.473 608.07 401.396 599.479 412.729 590.864C410.922 588.751 409.219 586.423 408.458 583.711C407.383 579.876 408.157 576.183 410.214 572.823C417.455 560.995 434.875 553.225 447.647 549.594C453.325 547.979 459.189 547.064 464.934 545.718C461.815 544.131 458.807 542.207 455.787 540.433Q455.006 541.348 454.156 542.201C451.654 544.753 449.372 546.402 445.63 546.309C438.249 546.125 430.272 538.608 425.453 533.601C422.544 536.067 419.732 538.463 417.247 541.365C401.059 535.782 393.466 526.207 385.849 511.399C382.215 513.29 368.215 521.566 365.161 520.807C359.712 515.519 358.431 499.672 358.005 492.307C353.471 492.875 349.084 493.118 344.541 492.506C330.464 490.61 318.662 481.859 310.332 470.687C293.402 447.984 287.599 416.759 291.774 389.059C294.756 369.278 304.062 353.283 320.134 341.332C315.051 336.458 311.082 331.416 308.639 324.736C304.324 312.937 305.38 300.861 310.615 289.628C299.216 280.406 292.157 267.887 289.424 253.484C287.454 243.101 287.459 231.83 293.564 222.81C299.84 228.994 305.984 232.917 313.814 236.93C310.979 229.815 308.764 222.784 308.707 215.051C308.647 206.777 310.634 199.208 316.587 193.209C326.263 203.536 329.54 210.107 344.841 212.034Q345.241 210.087 345.71 208.156Q346.179 206.225 346.717 204.312Q347.254 202.4 347.86 200.507Q348.466 198.614 349.139 196.745Q349.813 194.875 350.552 193.031Q351.292 191.187 352.097 189.37Q352.903 187.553 353.772 185.766Q354.642 183.98 355.575 182.225Q356.508 180.471 357.503 178.751Q358.499 177.031 359.555 175.348Q360.611 173.664 361.727 172.02Q362.842 170.376 364.016 168.772Q365.19 167.169 366.42 165.608Q367.651 164.048 368.936 162.533Q370.222 161.017 371.561 159.549Q372.899 158.081 374.29 156.661C397.503 132.982 424.023 123.294 456.671 122.979C454.214 117.431 452.379 111.845 451.705 105.794C450.826 97.8979 450.995 86.2348 456.155 79.7744Z"/>
	<path fill="#E79673" d="M579.805 754.315L579.52 754.928C578.879 754.984 578.179 754.821 577.598 755.095C576.169 755.769 572.787 760.161 571.093 761.451C571.928 759.019 572.519 756.511 573.16 754.021C575.434 754.295 577.509 754.485 579.805 754.315Z"/>
	<path fill="#05495D" d="M599.821 823.43C603.078 824.731 606.199 825.785 609.67 826.347C612.869 826.864 620.659 826.313 622.874 827.468C623.332 829.064 623.613 830.57 623.789 832.221L619.163 831.91Q615.684 831.473 612.273 830.662C607.495 829.556 602.529 827.783 599.821 823.43Z"/>
	<path fill="#921C2D" d="M358.776 325.829Q363.947 326.783 369.104 327.813C367.649 332.452 366.486 337.178 365.269 341.884L363.863 346.321Q361.677 335.986 358.776 325.829Z"/>
	<path fill="#565F5F" d="M530.245 769.992C536.484 770.11 540.343 769.447 545.924 766.347C550.825 766.678 556.021 766.681 560.861 767.413C559.352 768.521 557.846 769.584 556.174 770.434C546.59 775.3 539.606 773.131 530.245 769.992Z"/>
	<path fill="#B7A296" d="M619.126 713.868C619.372 714.099 619.635 714.314 619.865 714.562C621.67 716.511 629.747 729.218 629.619 731.614L628.354 732.209C625.551 733.176 622.802 734.312 620.042 735.397C619.287 728.286 619.327 721.018 619.126 713.868Z"/>
	<path fill="#65D0D2" d="M619.163 831.91L623.789 832.221C625.853 839.577 627.762 847.002 629.032 854.542L624.13 858.993C623.562 857.807 623.494 856.828 623.336 855.543C623.795 848.634 620.788 838.793 619.163 831.91Z"/>
	<path fill="#F36337" d="M610.771 512.656Q617.403 507.038 623.317 500.668Q629.231 494.299 634.343 487.269C636.379 484.411 639.375 477.621 642.331 476.304L643.413 477.619C640.442 482.272 637.772 487.154 634.605 491.67C631.444 496.178 619.015 511.848 613.722 512.859C612.806 513.034 611.685 512.831 610.771 512.656Z"/>
	<path fill="#FBF6DF" d="M515.901 591.633C517.087 589.511 535.112 576.586 538.428 573.866Q538.69 579.548 539.397 585.191C532.026 588.408 523.95 590.942 515.901 591.633Z"/>
	<path fill="#3F103A" d="M523.032 763.606C520.222 759.727 518.599 755.182 519.223 750.35C519.927 744.903 522.954 741.192 527.192 737.955C525.935 744.005 524.461 751.006 527.954 756.613C530.783 761.155 535.637 763.417 540.138 765.926C533.923 767.261 528.708 766.071 523.032 763.606Z"/>
	<path fill="#E79673" d="M523.438 801.366C520.765 799.678 518.186 797.317 517.05 794.31L517.526 793.669C520.906 793.831 524.637 796.401 527.923 797.464C533.078 799.131 538.207 799.554 543.592 799.694C543.934 802.348 544.362 805.084 545.917 807.343C549.158 809.383 551.889 809.94 555.67 810.261L555.971 810.921C554.866 810.752 553.831 810.603 552.71 810.62C547.254 810.702 541.647 810 536.614 807.788C531.812 806.231 527.598 804.221 523.438 801.366Z"/>
	<path fill="#966F7F" d="M527.327 800.673L527.708 800.065C533.848 802.29 539.803 805.033 545.917 807.343C549.158 809.383 551.889 809.94 555.67 810.261L555.971 810.921C554.866 810.752 553.831 810.603 552.71 810.62C547.254 810.702 541.647 810 536.614 807.788L537.02 807.473L536.857 806.69C534.381 803.804 530.69 802.284 527.327 800.673Z"/>
	<path fill="#F6B071" d="M671.349 157.821C670.477 154.867 667.967 149.427 668.624 146.665C677.065 158.309 686.036 172.434 683.719 187.55C683.24 190.676 682.29 194.004 680.433 196.588C679.936 196.475 679.265 196.38 678.898 195.977C677.5 194.445 680.554 167.075 671.349 157.821Z"/>
	<path fill="#A9F0F5" d="M668.042 338.791C671.267 336.093 674.095 334.433 678.438 334.826C687.473 335.643 696.358 343.722 701.752 350.491Q702.931 351.988 704.021 353.552L699.924 356.211C694.082 348.629 686.265 344.026 677.217 341.432C674.489 340.65 671.238 340.258 668.675 339.091C668.463 338.994 668.253 338.891 668.042 338.791Z"/>
	<path fill="#E79673" d="M613.894 870.63C616.405 869.478 618.82 868.258 621.23 866.905C622.006 877.005 623.092 887.269 623.086 897.399C619.432 900.288 615.546 903.122 611.455 905.36C611.87 902.138 613.682 899.125 614.324 895.927C615.943 887.866 614.57 878.765 613.894 870.63Z"/>
	<path fill="#FBF6DF" d="M402.182 765.584C412.456 773.384 425.021 778.538 438.159 776.722Q439.788 776.492 441.412 776.225C438.258 780.787 435.123 782.739 429.582 783.746C423.345 784.88 413.64 784.575 408.263 780.916C407.306 775.071 404.278 770.908 402.182 765.584Z"/>
	<path fill="#E79673" d="M472.936 295.979L473.23 296.755C467.22 307.051 460.645 316.428 452.126 324.813C448.822 322.597 445.398 321.198 441.687 319.834C439.608 319.306 437.442 319.008 435.33 318.63C449.332 313.113 461.544 305.851 472.936 295.979Z"/>
	<path fill="#966F7F" d="M446.335 686.762C447.43 683.731 448.43 680.675 450.055 677.877C458.871 680.483 467.67 683.028 476.396 685.946L476.51 686.381C475.438 689.838 474.258 693.24 473.026 696.643C464.031 693.843 455.159 690.093 446.335 686.762Z"/>
	<path fill="#F6B071" d="M450.055 677.877C450.804 676.605 451.21 675.383 452.527 674.667C457.259 675.882 461.594 678.007 466.215 679.526C478.682 683.625 491.099 687.792 503.492 692.119L540.714 704.968C545.639 706.644 550.833 707.981 555.678 709.821C556.36 710.079 556.748 710.492 557.194 711.045C557.231 711.881 557.257 712.701 557.226 713.537C551.811 712.617 546.198 709.549 540.944 707.804C519.483 700.672 498.249 691.723 476.396 685.946C467.67 683.028 458.871 680.483 450.055 677.877Z"/>
	<path fill="#F6B071" d="M668.028 212.06C669.54 211.691 670.127 211.733 671.516 212.499Q672.804 213.206 674.052 213.979Q675.301 214.752 676.508 215.589Q677.714 216.427 678.875 217.326Q680.036 218.226 681.149 219.185Q682.261 220.144 683.321 221.161Q684.382 222.177 685.388 223.247Q686.393 224.318 687.342 225.439Q688.29 226.561 689.178 227.731Q690.066 228.9 690.892 230.115Q691.717 231.33 692.478 232.586Q693.239 233.843 693.933 235.137Q694.626 236.432 695.251 237.761Q695.877 239.09 696.431 240.45Q696.985 241.81 697.468 243.197Q697.95 244.585 698.359 245.995Q698.768 247.406 699.103 248.836Q699.851 252.127 700.227 255.481Q700.604 258.835 700.605 262.21L696.289 258.164C692.97 242.238 686.409 231.028 673.94 220.556C671.177 218.235 667.266 216.343 664.875 213.757C664.723 213.592 664.575 213.423 664.425 213.256L668.028 212.06Z"/>
	<path fill="#A9F0F5" d="M560.653 550.293C566.682 548.998 592.906 564.373 599.277 568.516C603.071 570.983 610.915 575.77 611.853 580.544C612.115 581.881 611.538 583.243 610.75 584.318C607.959 588.123 602.673 590.642 598.609 592.89C598.054 587.433 601.47 582.45 599.33 577.007C596.722 570.37 588.18 565.312 581.942 562.557C575.002 559.072 566.702 555.088 560.653 550.293Z"/>
	<path fill="#F6B071" d="M435.883 689.426L436.258 689.109L436.519 689.715L436.851 689.025C444.83 690.435 452.994 693.93 460.653 696.587L504.847 712.193L535.676 723.137C541.373 725.174 548.489 726.995 553.557 730.237L554.384 733.125C550.823 732.364 547.238 730.629 543.848 729.309Q535.044 725.83 526.107 722.711L464.986 701.051C456.558 697.994 447.869 695.309 439.569 691.939C437.802 691.222 437.023 690.942 435.883 689.426Z"/>
	<path fill="#05495D" d="M613.158 800.85C618.48 800.575 623.632 799.742 628.841 798.643C627.712 806.488 625.946 813.782 622.49 820.948C616.349 821.612 610.715 821.422 604.736 819.704C607.777 813.49 610.747 807.344 613.158 800.85Z"/>
	<path fill="#05495D" d="M637.142 731.812C633.33 723.792 627.868 715.756 623.123 708.218C620.876 704.648 617.393 700.42 616.23 696.377C614.961 691.965 615.724 684.857 616.413 680.297C616.374 681.512 616.262 682.947 616.649 684.112C618.686 690.249 641.935 723.988 646.758 729.019C646.861 729.127 646.972 729.226 647.079 729.33C643.981 730.595 640.416 731.111 637.142 731.812Z"/>
	<path fill="#65D0D2" d="M348.015 757.096C348.118 748.719 349.75 740.542 353.622 733.055C356.454 727.577 361.655 720.998 367.806 719.307C370.064 718.686 373.577 718.119 375.693 719.333C375.786 720.536 375.076 720.718 374.222 721.457C366.483 728.155 364.256 734.781 360.881 744.122C359.154 750.33 358.149 757.059 355.932 763.074C352.885 761.397 350.381 759.7 348.015 757.096Z"/>
	<path fill="#921C2D" d="M446.781 709.587C448.014 709.53 449.273 709.46 450.507 709.524C453.941 709.7 457.607 711.349 459.844 713.979C462.345 716.919 463.246 720.975 462.83 724.756C462.399 728.664 460.484 733.017 457.264 735.424C456.281 736.159 455.766 736.282 454.597 736.037C451.678 733.906 437.421 726.019 436.725 723.702C436.057 721.48 436.97 718.146 437.934 716.127C439.668 712.498 443.187 710.862 446.781 709.587Z"/>
	<path fill="#05495D" d="M476.826 562.656L477.604 562.77C477.847 563.347 477.907 563.416 478.027 564.132C478.75 568.449 477.189 590.556 474.862 593.364L473.822 593.444C469.667 591.002 465.668 585.776 462.135 582.307C457.406 577.69 452.59 574.207 447.04 570.68C456.636 566.762 466.625 564.37 476.826 562.656Z"/>
	<path fill="#966F7F" d="M546.593 795.108C544.834 795.319 543.002 795.311 541.231 795.213C531.212 794.659 519.191 790.153 512.45 782.474C509.814 779.471 507.387 774.939 507.816 770.802C507.984 769.187 508.665 768.469 509.904 767.525C515.792 766.126 530.547 774.904 536.923 777.266C536.925 782.766 537.6 787.011 541.667 791.071C543.171 792.573 545.241 793.516 546.593 795.108Z"/>
	<path fill="#2098A6" d="M360.881 744.122C360.952 744.45 361.028 744.776 361.092 745.105C361.8 748.71 360.923 753.082 360.98 756.798C361.163 768.704 366.5 781.137 376.266 788.216C377.527 789.13 378.874 789.932 380.212 790.727C377.086 793.481 373.983 796.163 370.609 798.611C360.42 792.7 352.546 780.067 349.571 768.877C348.543 765.011 348.088 761.09 348.015 757.096C350.381 759.7 352.885 761.397 355.932 763.074C358.149 757.059 359.154 750.33 360.881 744.122Z"/>
	<path fill="#921C2D" d="M527.192 737.955C531.445 735.923 536.015 735.073 540.591 736.629Q541.286 736.86 541.953 737.161Q542.62 737.462 543.253 737.829Q543.886 738.197 544.478 738.627Q545.07 739.057 545.615 739.546Q546.161 740.034 546.653 740.576Q547.145 741.117 547.58 741.706Q548.014 742.295 548.386 742.926Q548.758 743.556 549.064 744.221C550.878 748.165 550.889 752.844 549.234 756.844C547.445 761.169 544.274 763.929 540.138 765.926C535.637 763.417 530.783 761.155 527.954 756.613C524.461 751.006 525.935 744.005 527.192 737.955Z"/>
	<path fill="#05495D" d="M542.77 554.271Q549.544 552.941 556.294 551.498C562.591 556.163 567.855 561.536 572.76 567.631L570.664 567.399C563.66 574.002 552.087 582.747 544.005 587.953C543.723 579.607 542.727 571.342 543.022 562.981L542.77 554.271Z"/>
	<path fill="#2098A6" d="M542.77 554.271Q549.544 552.941 556.294 551.498C562.591 556.163 567.855 561.536 572.76 567.631L570.664 567.399C561.474 565.007 552.519 563.403 543.022 562.981L542.77 554.271Z"/>
	<path fill="#565F5F" d="M458.831 757.545Q459.288 756.75 459.679 755.92C461.88 751.163 464.003 746.627 460.465 742.119C459.755 741.214 458.835 740.314 458.525 739.184C458.48 739.023 458.476 738.854 458.452 738.689C463.086 740.142 464.283 744.071 468.406 746.215C476.731 750.546 487.566 753.282 496.558 756.467C500.856 757.99 505.419 760.204 509.814 761.298C508.536 761.891 507.296 762.484 506.233 763.428C502.998 766.3 503.016 770.143 502.811 774.141C488.019 769.074 473.342 763.367 458.831 757.545Z"/>
	<path fill="#05495D" d="M508.166 660.028Q544.582 632.062 583.687 607.997C590.875 603.584 598.518 598.244 606.201 594.824C607.565 594.94 607.655 595.089 608.722 595.977C606.364 598.96 603.96 601.409 600.898 603.677C591.914 610.332 581.727 615.559 572.501 621.947C556.261 633.189 540.356 644.641 523.785 655.418C518.631 658.769 513.544 662.815 508.052 665.524C507.41 665.841 507.697 665.668 507.083 666.161C507.774 664.193 507.912 662.088 508.166 660.028Z"/>
	<path fill="#65D0D2" d="M613.158 800.85C617.431 788.31 614.553 770.114 609.492 758.148C607.856 754.278 605.139 750.963 603.627 747.085C605.67 745.992 608.814 745.142 611.118 745.438C614.749 745.905 617.537 747.882 619.776 750.709C629.69 763.224 630.607 783.547 628.841 798.643C623.632 799.742 618.48 800.575 613.158 800.85Z"/>
	<path fill="#65D0D2" d="M624.178 612.187C630.984 615.575 638.007 619.143 643.344 624.692C649.712 631.312 654.174 640.115 658.613 648.089C671.355 670.981 683.093 695.029 691.435 719.911C695.815 732.973 700.32 747.153 701.639 760.918L701.227 761.124C699.753 759.371 691.307 731.996 689.579 727.403Q682.809 709.42 674.602 692.046Q666.395 674.672 656.804 658.022L645.868 639.15C643.276 634.624 641.127 630.07 637.914 625.912Q635.19 622.336 631.812 619.37C629.907 617.685 625.864 615.388 624.562 613.382C624.334 613.031 624.306 612.585 624.178 612.187Z"/>
	<path fill="#565F5F" d="M476.396 685.946C498.249 691.723 519.483 700.672 540.944 707.804C546.198 709.549 551.811 712.617 557.226 713.537C555.228 716.483 553.982 721.799 553.366 725.324Q514.745 710.589 475.611 697.277C476.365 694.818 477.425 692.035 477.593 689.472C477.689 688.014 477.402 687.486 476.51 686.381L476.396 685.946Z"/>
	<path fill="#921C2D" d="M458.178 87.0391C459.238 87.9954 460.153 89.0009 461.082 90.0842C461.07 95.966 473.753 111.814 478.014 116.059C489.54 127.542 503.583 132.444 518.584 137.57C513.698 138.343 507.738 137.367 502.694 137.443Q486.978 137.691 471.464 140.218C470.144 137.731 468.657 135.321 467.247 132.882C458.715 118.118 453.622 104.074 458.178 87.0391Z"/>
	<path fill="#921C2D" d="M314.576 292.214C322.053 295.278 329.341 297.852 337.489 298.089C340.84 298.358 344.095 298.241 347.448 298.075C340.942 300.282 333.488 303.298 326.534 303.006C325.498 303.304 324.914 303.63 324.073 304.303C323.772 305.624 323.681 306.203 324.405 307.406C329.429 315.757 347.398 322.981 356.387 325.488C356.969 330.861 358.141 336.196 359.141 341.506C355.833 338.511 352.529 335.813 348.283 334.286C340 331.308 332.959 334.208 325.573 337.84C320.55 334.796 316.757 330.298 314.365 324.966C309.711 314.586 310.599 302.617 314.576 292.214Z"/>
	<path fill="#966F7F" d="M548.468 813.168L548.278 813.725C551.854 816.261 559.403 817.232 563.722 817.065C581.62 816.372 597.586 805.679 609.277 792.907C607.852 804.543 600.8 813.991 591.789 821.122C580.452 830.096 563.83 835.64 549.335 833.755Q548.577 833.657 547.825 833.521Q547.073 833.385 546.329 833.212Q545.585 833.038 544.85 832.828Q544.116 832.618 543.393 832.371Q542.67 832.124 541.96 831.841Q541.25 831.559 540.555 831.241Q539.86 830.923 539.182 830.571Q538.504 830.218 537.844 829.833Q537.185 829.447 536.545 829.029Q535.906 828.611 535.288 828.161Q534.67 827.711 534.076 827.231Q533.481 826.751 532.911 826.242Q532.342 825.733 531.798 825.196Q531.255 824.659 530.739 824.095Q530.223 823.532 529.735 822.943Q529.248 822.354 528.791 821.742Q527.845 820.472 526.985 819.141C538.005 822.839 546.748 826.652 558.328 822.246C546.544 821.891 532.83 820.753 524.328 811.426C522.373 809.281 521.387 806.896 520.409 804.215C529.497 809.351 537.847 813.03 548.468 813.168Z"/>
	<path fill="#2098A6" d="M676.357 448.019C685.2 448.503 692.974 449.227 700.528 443.573C710.691 435.966 721.297 416.73 722.912 404.368C723.043 403.369 723.229 402.386 723.405 401.395C723.894 425.853 720.107 453.466 702.232 471.839C698.651 475.52 694.647 478.313 689.765 479.99C689.71 480.009 689.656 480.029 689.601 480.049C688.025 479.089 686.49 478.131 685.131 476.871C677.325 469.631 676.616 457.955 676.357 448.019Z"/>
	<path fill="#05495D" d="M702.494 762.727C702.679 768.563 703.351 774.324 702.97 780.167C687.247 798.368 653.447 812.911 630.003 816.4C631.827 810.2 632.369 801.901 634.269 796.54C634.414 796.583 634.555 796.644 634.704 796.668C637.161 797.062 641.737 795.11 644.252 794.355C662.179 788.972 679.218 782.237 694.614 771.361C697.659 769.21 701.827 766.593 702.494 762.727Z"/>
	<path fill="#65D0D2" d="M453.627 581.365C471.18 595.451 496.281 629.916 503.556 651.381C487.936 639.583 472.571 627.525 456.59 616.206C454.015 611.178 447.31 608.78 443.803 604.265C442.134 602.117 441.151 599.792 441.606 597.039C442.525 591.486 449.181 584.545 453.627 581.365Z"/>
	<path fill="#2098A6" d="M456.59 616.206C448.792 611.717 417.065 589.729 414.214 583.231C413.412 581.403 413.493 579.302 414.216 577.466C417.32 569.576 429.802 562.616 437.201 559.389C442.378 557.131 468.392 548.261 473.617 551.193C475.744 552.387 476.425 556.143 477.091 558.315C464.837 559.954 451.35 563.427 441.395 571.009C445.051 574.817 449.548 578.009 453.627 581.365C449.181 584.545 442.525 591.486 441.606 597.039C441.151 599.792 442.134 602.117 443.803 604.265C447.31 608.78 454.015 611.178 456.59 616.206Z"/>
	<path fill="#2098A6" d="M641.989 430.271C645.355 437.058 648.712 443.723 656.448 446.276C661.743 448.023 668.413 448.032 673.98 448.03C674.016 445.075 674.105 442.189 674.428 439.25C674.512 440.926 674.341 443.223 675.279 444.63L676.035 445.132L676.357 448.019C676.616 457.955 677.325 469.631 685.131 476.871C686.49 478.131 688.025 479.089 689.601 480.049C688.633 480.619 687.716 481.232 686.651 481.601C679.33 483.853 671.43 486.526 663.682 486.358C659.26 486.262 655.113 485.317 652.011 481.973C643.192 472.47 641.666 442.683 641.989 430.271Z"/>
	<path fill="#1F0A4B" d="M673.98 448.03C674.016 445.075 674.105 442.189 674.428 439.25C674.512 440.926 674.341 443.223 675.279 444.63L676.035 445.132L676.357 448.019C676.616 457.955 677.325 469.631 685.131 476.871C686.49 478.131 688.025 479.089 689.601 480.049C688.633 480.619 687.716 481.232 686.651 481.601C685.403 480.587 684.146 479.566 682.99 478.446C674.724 470.435 674.072 458.814 673.98 448.03Z"/>
	<path fill="#921C2D" d="M686.656 296.968C686.712 297.041 686.756 297.125 686.824 297.186C689.022 299.132 702.203 297.45 705.449 296.975C720.258 294.808 726.182 287.734 734.673 276.386C732.037 293.039 725.96 309.146 711.906 319.371C709.666 321.001 707.402 322.329 704.87 323.46C702.051 322.582 699.233 321.615 696.36 320.933C698.264 322.94 700.892 324.549 702.643 326.538C707.672 329.925 713.036 332.731 718.358 335.622L716.347 340.459C714.627 344.649 712.344 348.637 710.231 352.641C704.249 345.057 697.996 338.099 689.506 333.276Q688.737 315.07 686.656 296.968Z"/>
	<path fill="#F36337" d="M702.643 326.538C707.672 329.925 713.036 332.731 718.358 335.622L716.347 340.459C712.559 339.789 706.094 339.343 703.618 336.112C701.497 333.344 702.347 329.758 702.643 326.538Z"/>
	<path fill="#921C2D" d="M363.137 490.778C372.087 486.283 375.216 480.492 378.91 471.635C386.468 489.363 397.727 503.203 412.53 515.408C416.192 518.428 421.045 520.942 424.305 524.287C424.451 524.437 424.593 524.59 424.737 524.741Q438.132 532.422 452.251 538.671C450.215 540.51 448.882 541.994 445.973 541.762C438.063 541.132 431.647 532.328 426.054 527.545C422.332 529.96 418.959 533.153 415.561 536.009C401.112 529.031 394.883 517.993 386.959 504.66C380.665 508.019 374.821 511.709 368.018 514.011C363.918 507.212 363.589 498.49 363.137 490.778Z"/>
	<path fill="#921C2D" d="M404.757 867.125C422.961 877.951 444.542 882.851 465.306 885.933C471.137 886.798 478.292 886.701 483.843 888.395C495.49 888.719 507.09 889.491 518.755 889.357C536.563 889.153 553.615 887.18 571.161 884.418C568.647 887.649 561.021 888.108 557.164 888.582C555.068 888.84 552.956 889.036 550.842 888.949C546.413 888.457 541.035 889.674 536.531 890.032Q527.216 890.683 517.879 890.751C504.079 890.83 490.19 890.603 476.392 890.175C466.427 889.866 455.969 889.143 446.027 889.677C442.746 889.853 440.181 890.442 437.636 892.567C434.515 895.172 432.522 898.471 432.168 902.568C431.744 907.474 433.699 912.428 435.461 916.921C424.042 913.495 412.305 906.085 401.988 900.154C403.426 889.256 403.921 878.091 404.757 867.125Z"/>
	<path fill="#921C2D" d="M643.413 477.619C644.86 482.762 647.461 486.218 652.195 488.777C653.982 489.742 655.879 490.433 657.785 491.12C647.36 503.653 634.051 516.054 617.886 520.395L617.34 520.545C620.486 516.869 622.375 513.832 623.98 509.275L624.709 507.214C609.532 520.68 607.459 525.92 600.45 544.319C599.31 542.618 598.001 540.908 597.125 539.056L594.367 534.291C595.3 532.657 596.298 531.101 596.747 529.256C592.569 531.498 588.767 534.479 584.518 536.698C572.397 543.029 558.61 546.625 545.25 549.218C525.252 553.1 498.048 555.207 479.038 547.846C473.949 545.876 469.526 542.915 465.029 539.886C473.702 542.502 482.941 544.26 491.93 545.384C523.724 549.358 557.385 545.015 585.815 529.634C594.748 524.801 602.774 518.868 610.771 512.656C611.685 512.831 612.806 513.034 613.722 512.859C619.015 511.848 631.444 496.178 634.605 491.67C637.772 487.154 640.442 482.272 643.413 477.619Z"/>
	<path fill="#921C2D" d="M662.412 139.007C664.685 141.472 666.772 143.863 668.624 146.665C667.967 149.427 670.477 154.867 671.349 157.821C680.554 167.075 677.5 194.445 678.898 195.977C679.265 196.38 679.936 196.475 680.433 196.588L680.398 196.854C677.72 203.179 671.33 206.936 665.568 210.077C666.184 211.187 666.961 211.427 668.028 212.06L664.425 213.256C661.572 213.848 658.909 214.044 656.007 214.137C655.779 213.933 655.266 212.954 655.099 212.675C651.984 207.438 647.502 202.424 643.626 197.705C645.664 188.33 646.255 179.291 644.441 169.831C651.069 167.995 657.781 164.536 661.272 158.341C664.772 152.127 664.117 145.591 662.412 139.007Z"/>
	<path fill="#3F103A" d="M655.099 212.675C658.744 212.495 662.15 211.273 665.568 210.077C666.184 211.187 666.961 211.427 668.028 212.06L664.425 213.256C661.572 213.848 658.909 214.044 656.007 214.137C655.779 213.933 655.266 212.954 655.099 212.675Z"/>
	<path fill="#F36337" d="M671.349 157.821C680.554 167.075 677.5 194.445 678.898 195.977C679.265 196.38 679.936 196.475 680.433 196.588L680.398 196.854C675.031 197.619 669.169 201.049 663.143 201.772C660.103 202.137 656.487 202.219 654.008 200.111C651.725 198.17 651.112 194.422 651.06 191.583C650.846 179.885 661.629 178.224 668.097 171.536C671.733 167.777 671.361 162.667 671.349 157.821Z"/>
	<path fill="#E79673" d="M481.787 553.165C500.769 557.437 518.78 557.893 537.977 555.248C537.969 561.449 538.193 567.67 538.428 573.866C535.112 576.586 517.087 589.511 515.901 591.633C506.847 594.311 490.487 589.118 482.351 585.115C483.463 574.473 483.649 563.738 481.787 553.165Z"/>
	<path fill="#05495D" d="M457.286 762.323Q469.783 767.925 482.626 772.682C488.732 774.972 498.313 777.406 503.587 781.055C506.13 782.814 508.208 786.044 510.528 788.193C510.354 797.251 515.285 808.366 521.598 814.872L522.063 815.343C521.915 822.905 526.097 825.319 529.533 831.287C520.648 828.145 514.898 819.489 507.498 814.056C492.7 803.193 462.128 785.879 444.795 780.431C447.873 774.084 453.167 770.014 456.388 763.989C456.686 763.431 456.995 762.885 457.286 762.323Z"/>
	<path fill="#E79673" d="M459.192 339.448C498.651 336.915 532.438 323.151 558.868 293.067C565.069 286.008 569.93 278.446 573.43 269.727C591.147 299.655 625.479 329.84 654.723 348.335C652.866 352.494 650.913 356.634 649.255 360.876C646.993 357.054 645.915 352.531 642.852 349.196C636.584 342.372 627.974 337.013 620.747 331.189C606.398 319.629 592.924 306.052 576.493 297.409C567.491 303.157 559.211 309.98 550.026 315.488C527.952 328.726 490.427 342.183 464.95 345.171C463.045 343.258 461.179 341.273 459.192 339.448Z"/>
	<path fill="#F36337" d="M656.007 214.137C658.909 214.044 661.572 213.848 664.425 213.256C664.575 213.423 664.723 213.592 664.875 213.757C667.266 216.343 671.177 218.235 673.94 220.556C686.409 231.028 692.97 242.238 696.289 258.164L700.605 262.21C700.473 263.367 700.719 263.528 699.776 264.304C692.85 264.808 682.993 254.769 680.23 254.269C690.007 264.644 700.012 270.742 714.015 274.038C716.576 274.641 719.353 275.573 721.992 275.647C726.227 275.767 730.582 274.5 734.782 274.912C734.863 276.089 734.973 275.609 734.673 276.386C726.182 287.734 720.258 294.808 705.449 296.975C702.203 297.45 689.022 299.132 686.824 297.186C686.756 297.125 686.712 297.041 686.656 296.968C686.089 290.661 684.549 284.154 683.103 277.992C677.714 255.028 669.471 233.622 656.007 214.137Z"/>
	<path fill="#921C2D" d="M673.038 246.003C679.597 251.052 688.64 254.978 696.289 258.164L700.605 262.21C700.473 263.367 700.719 263.528 699.776 264.304C692.85 264.808 682.993 254.769 680.23 254.269C677.16 251.986 675.174 249.113 673.038 246.003Z"/>
	<path fill="#05495D" d="M417.265 593.812C427.451 602.949 438.907 610.73 450.039 618.654Q467.695 631.172 485.067 644.081C491.62 648.915 498.671 653.504 504.673 658.989C505.045 660.933 505.121 662.935 505.267 664.907C503.751 662.815 494.942 657.696 492.307 655.828L456.092 629.848C447.982 624.117 439.543 618.664 431.622 612.686C426.602 620.06 407.784 644.377 409.339 652.111C411.448 662.602 415.272 672.573 416.089 683.339L408.572 687.337C408.398 659.162 405.32 642.103 385.314 621.012C395.213 610.888 406.192 602.557 417.265 593.812Z"/>
	<path fill="#A9F0F5" d="M565.412 153.144C609.791 168.815 644.663 197.359 665.21 240.225C678.658 268.28 684.633 302.04 685.069 332.993C682.861 332.35 680.611 331.562 678.342 331.192C677.394 329.978 677.156 319.711 676.897 317.476Q675.281 304.417 672.282 291.604C665.599 262.654 655.515 241.199 637.376 217.538C627.111 201.043 604.245 180.283 587.453 170.792C580.187 166.686 568.673 161.947 562.612 156.959C562.915 155.54 564.461 154.257 565.412 153.144Z"/>
	<path fill="#966F7F" d="M429.056 788.693C419.146 794.63 408.672 794.355 397.709 791.849C386.534 789.294 375.667 784.465 369.451 774.337C364.003 765.46 363.65 753.803 366.044 743.901C367.361 738.454 369.734 731.095 374.38 727.681C376.409 726.19 378.877 724.874 380.522 722.957C383.17 719.871 385.154 716.052 387.513 712.735Q389.68 709.731 392.132 706.954Q394.584 704.177 397.297 701.654Q400.01 699.131 402.957 696.886Q405.904 694.641 409.057 692.697C408.652 695.929 401.246 701.668 399.028 704.511C388.341 718.213 387.99 738.466 394.55 754.044C395.011 759.06 399.653 761.711 402.182 765.584C404.278 770.908 407.306 775.071 408.263 780.916C407.536 780.742 406.863 780.685 406.12 780.623L405.966 781.246C406.285 781.682 406.386 781.854 406.731 782.221C411.602 787.397 422.45 788.413 429.056 788.693Z"/>
	<path fill="#921C2D" d="M574.449 215.645C579.622 239.394 584.812 257.683 601.32 276.389Q603.889 279.355 606.671 282.123Q609.453 284.89 612.433 287.443Q615.413 289.997 618.575 292.322Q621.736 294.647 625.061 296.731C633.192 301.918 641.854 305.733 651.327 307.644C651.804 301.577 652.023 295.769 651.539 289.686C651.18 285.179 650.308 280.425 650.38 275.938C658.906 288.596 662.047 320.575 663.305 335.973C661.744 338.375 659.832 340.657 658.095 342.938C649.753 339.629 641.976 333.491 634.97 327.966C611.5 309.453 592.125 288.759 574.694 264.518C577.599 254.275 576.05 243.668 573.734 233.433L573.097 233.49C572.58 227.953 573.894 221.213 574.449 215.645Z"/>
	<path fill="#921C2D" d="M445.075 128.205C449.586 127.908 454.052 127.995 458.566 128.093Q463.971 134.363 469.267 140.726C430.003 146.296 391.301 171.429 366.097 201.401L359.813 209.31C356.58 210.192 353.396 210.845 350.089 211.383C353.012 195.031 362.467 178.322 373.065 165.74C390.702 144.803 417.772 130.49 445.075 128.205Z"/>
	<path fill="#65D0D2" d="M556.294 551.498C557.764 551.154 559.205 550.718 560.653 550.293C566.702 555.088 575.002 559.072 581.942 562.557C588.18 565.312 596.722 570.37 599.33 577.007C601.47 582.45 598.054 587.433 598.609 592.89C591.942 598.128 580.58 603.589 572.903 608.314C559.475 616.579 546.632 625.603 533.803 634.754C530.074 637.414 510.715 652.394 507.791 653.043C507.142 652.114 507.033 651.472 507.112 650.357C507.442 645.692 513.807 638.397 516.533 634.517C533.507 610.355 551.053 587.238 574.202 568.599L572.76 567.631C567.855 561.536 562.591 556.163 556.294 551.498Z"/>
	<path fill="#FBF6DF" d="M409.057 692.697C413.802 689.466 419.422 685.656 425.506 687.049C426.204 687.208 426.7 687.547 427.253 687.978C427.913 689.479 428.008 690.369 427.423 691.936C425.271 697.702 420.204 703.873 416.083 708.393C415.056 709.52 412.663 711.411 412.018 712.669C411.671 713.346 411.661 714.806 411.904 715.516C413.203 719.311 452.961 736.295 456.71 746.097C457.223 747.439 457.001 748.96 456.478 750.264C455.439 752.85 453.23 754.309 450.721 755.304C444.027 757.958 435.517 755.112 429.298 752.246C422.299 749.02 415.925 744.673 409.879 739.928C417.666 750.134 428.556 759.224 441.684 761.081Q443.812 761.379 445.96 761.365Q448.109 761.352 450.233 761.028L450.874 761.441C451.053 763.202 450.151 764.451 449.064 765.752C445.551 769.955 439.911 771.402 434.607 771.787C423.571 772.589 409.043 768.677 400.648 761.272C398.302 759.202 396.177 756.715 394.55 754.044C387.99 738.466 388.341 718.213 399.028 704.511C401.246 701.668 408.652 695.929 409.057 692.697Z"/>
	<path fill="#05495D" d="M352.847 723.109L353.66 723.21C353.83 724.653 349.503 732.689 348.757 734.912C346.239 742.422 344.707 749.92 344.892 757.855C345.301 775.403 354.391 789.12 366.7 800.819C353.88 805.599 343.154 807.973 329.466 806.304C326.245 805.317 323.118 804.237 320.236 802.456C312.743 797.824 308.241 790.249 306.331 781.799C303.691 770.12 305.027 755.106 311.627 744.875C319.8 732.204 338.862 726.004 352.847 723.109Z"/>
	<path fill="#65D0D2" d="M698.716 361.002C700.957 359.107 702.812 357.494 705.909 357.729C708.754 357.945 710.968 359.898 712.668 362.04C720.472 371.877 723.224 389.243 723.405 401.395C723.229 402.386 723.043 403.369 722.912 404.368C721.297 416.73 710.691 435.966 700.528 443.573C692.974 449.227 685.2 448.503 676.357 448.019L676.035 445.132L675.279 444.63C674.341 443.223 674.512 440.926 674.428 439.25C674.418 436.399 674.603 433.63 674.861 430.794C675.054 427.849 675.365 424.904 675.629 421.964Q676.446 415.691 677.616 409.475L678.319 405.49C682.023 389.628 686.741 372.599 696.754 359.494L698.716 361.002Z"/>
	<path fill="#0D021A" d="M674.428 439.25C674.418 436.399 674.603 433.63 674.861 430.794C675.003 432.108 674.862 433.648 675.721 434.663L676.407 434.67C676.401 438.166 676.223 441.642 676.035 445.132L675.279 444.63C674.341 443.223 674.512 440.926 674.428 439.25Z"/>
	<path fill="#000004" d="M675.629 421.964L677.665 422.591L676.407 434.67L675.721 434.663C674.862 433.648 675.003 432.108 674.861 430.794C675.054 427.849 675.365 424.904 675.629 421.964Z"/>
	<path fill="#1F0A4B" d="M696.754 359.494L698.716 361.002C688.776 373.707 683.848 390.374 680.562 405.955L679.203 412.738L677.665 422.591L675.629 421.964Q676.446 415.691 677.616 409.475L678.319 405.49C682.023 389.628 686.741 372.599 696.754 359.494Z"/>
	<path fill="#FBF6DF" d="M701.204 371.447C701.775 371.477 702.662 371.46 703.23 371.647C704.464 372.055 705.168 373.356 705.664 374.476C708.12 380.023 707.218 389.557 704.908 395.085C703.176 399.23 701.258 401.445 697.14 403.202C695.525 402.617 694.254 401.982 693.25 400.525C690.752 396.896 691.34 391.497 692.046 387.372C693.149 380.923 695.758 375.286 701.204 371.447Z"/>
	<path fill="#2098A6" d="M297.625 385.111C297.8 385.374 297.98 385.633 298.15 385.899C300.796 390.027 302.107 396.208 303.882 400.908C309.031 414.545 319.599 439.043 334.742 442.974C336.825 443.515 339.048 443.751 341.186 443.952L341.182 439.13C342.985 442.015 340.365 453.79 341.832 455.182C342.1 455.436 342.538 455.399 342.891 455.507C343.213 449.519 343.093 443.432 343.083 437.435C343.43 439.481 343.397 441.662 343.496 443.736C356.104 441.745 367.885 438.223 378.533 431.002Q378.529 443.127 377.193 455.179C376.235 463.755 373.667 477.746 366.344 483.306C360.794 487.521 352.432 488.647 345.678 487.601C332 485.485 321.126 476.832 313.208 465.815C296.694 442.841 293.077 412.426 297.625 385.111Z"/>
	<path fill="#0D021A" d="M341.182 439.13C342.985 442.015 340.365 453.79 341.832 455.182C342.1 455.436 342.538 455.399 342.891 455.507C342.291 465.611 342.462 477.211 334.971 484.836C340.742 472.346 341.114 457.541 341.186 443.952L341.182 439.13Z"/>
	<path fill="#966F7F" d="M430.459 698.479C431.858 695.16 433.361 692.064 435.883 689.426C437.023 690.942 437.802 691.222 439.569 691.939C447.869 695.309 456.558 697.994 464.986 701.051L526.107 722.711Q535.044 725.83 543.848 729.309C547.238 730.629 550.823 732.364 554.384 733.125C554.469 733.293 554.551 733.463 554.638 733.629C558.801 741.563 569.402 749.492 566.301 759.505C565.316 762.685 563.245 765.172 560.861 767.413C556.021 766.681 550.825 766.678 545.924 766.347C548.003 764.445 549.859 762.586 551.268 760.104C553.758 755.718 554.202 750.872 552.754 746.057C551.226 740.98 547.78 736.793 542.994 734.47Q542.548 734.256 542.093 734.065Q541.637 733.874 541.172 733.705Q540.708 733.537 540.235 733.392Q539.762 733.247 539.283 733.126Q538.804 733.005 538.32 732.908Q537.835 732.811 537.346 732.738Q536.857 732.665 536.365 732.617Q535.873 732.568 535.38 732.545Q534.886 732.521 534.392 732.522Q533.898 732.523 533.404 732.548Q532.91 732.574 532.419 732.624Q531.927 732.674 531.438 732.749Q530.95 732.824 530.466 732.923Q529.981 733.022 529.503 733.145Q529.024 733.268 528.552 733.414Q528.08 733.561 527.616 733.731Q527.124 733.912 526.642 734.119Q526.16 734.325 525.69 734.556Q525.219 734.786 524.76 735.041Q524.302 735.295 523.857 735.573Q523.413 735.85 522.983 736.15Q522.552 736.45 522.138 736.771Q521.724 737.093 521.327 737.435Q520.93 737.777 520.55 738.139Q520.171 738.501 519.811 738.881Q519.451 739.262 519.11 739.661Q518.77 740.06 518.45 740.475Q518.131 740.891 517.833 741.322Q517.535 741.754 517.26 742.2Q516.984 742.646 516.732 743.105Q516.479 743.565 516.251 744.036Q516.022 744.508 515.818 744.991C513.204 751.311 514.662 756.754 517.05 762.803C514.641 762.152 512.273 761.689 509.814 761.298C505.419 760.204 500.856 757.99 496.558 756.467C487.566 753.282 476.731 750.546 468.406 746.215C464.283 744.071 463.086 740.142 458.452 738.689C459.974 737.569 461.483 736.123 462.602 734.599C465.536 730.604 466.657 725.361 465.914 720.492C465.181 715.686 462.606 711.422 458.541 708.716C454.655 706.129 449.933 705.15 445.374 706.263C439.226 707.763 435.416 711.463 433.831 717.502C433.417 719.081 433.223 720.914 432.392 722.32L431.106 722.033L428.821 720.428Q425.954 718.673 423.121 716.864C425.142 710.635 427.893 704.504 430.459 698.479Z"/>
	<path fill="#65D0D2" d="M668.042 338.791C668.253 338.891 668.463 338.994 668.675 339.091C671.238 340.258 674.489 340.65 677.217 341.432C686.265 344.026 694.082 348.629 699.924 356.211L696.754 359.494C686.741 372.599 682.023 389.628 678.319 405.49L677.616 409.475Q676.446 415.691 675.629 421.964C675.365 424.904 675.054 427.849 674.861 430.794C674.603 433.63 674.418 436.399 674.428 439.25C674.105 442.189 674.016 445.075 673.98 448.03C668.413 448.032 661.743 448.023 656.448 446.276C648.712 443.723 645.355 437.058 641.989 430.271Q641.968 428.583 641.982 426.894C642.201 401.896 649.917 356.694 668.042 338.791Z"/>
	<path fill="#FBF6DF" d="M579.805 754.315C571.022 748.985 560.369 737.244 557.977 726.924C557.622 725.389 557.708 724.361 558.229 722.892C559.345 721.548 560.355 720.994 562.084 720.806C569.782 719.969 581.185 728.52 586.751 733.307C599.015 743.852 608.643 764.632 609.794 780.666C610.091 784.792 609.96 788.826 609.277 792.907C597.586 805.679 581.62 816.372 563.722 817.065C559.403 817.232 551.854 816.261 548.278 813.725L548.468 813.168C551.168 812.762 553.51 812.107 555.971 810.921L555.67 810.261C551.889 809.94 549.158 809.383 545.917 807.343C544.362 805.084 543.934 802.348 543.592 799.694C552.21 798.763 558.172 794.873 564.599 789.314C558.679 792.266 553.139 794.139 546.593 795.108C545.241 793.516 543.171 792.573 541.667 791.071C537.6 787.011 536.925 782.766 536.923 777.266Q538.886 777.678 540.883 777.852Q542.881 778.027 544.886 777.96Q546.89 777.893 548.872 777.587Q550.854 777.281 552.785 776.739C561.471 774.368 566.757 769.023 571.093 761.451C572.787 760.161 576.169 755.769 577.598 755.095C578.179 754.821 578.879 754.984 579.52 754.928L579.805 754.315Z"/>
	<path fill="#05495D" d="M383.733 622.972Q384.459 623.636 385.143 624.343C403.702 643.308 405.763 663.815 405.587 688.92C395.932 694.93 386.575 704.251 380.329 713.72C367.138 711.138 353.007 716.979 340.417 720.453C334.855 722.211 329.558 724.471 324.27 726.908C333.662 699.708 364.005 643.057 383.733 622.972Z"/>
	<path fill="#E79673" d="M373.915 328.115C384.387 329.199 396.505 328.009 406.784 326.033C423.738 322.773 432.024 319.123 448.292 327.457C447.22 328.38 446.008 329.19 444.865 330.028C436.778 326.882 428.6 324.119 419.873 326.464C413.633 328.141 404.734 333.108 401.491 338.844L401.732 339.284C403.73 339.065 405.378 337.53 407.139 336.609C413.131 333.472 419.899 330.542 426.766 330.399C437.468 330.175 454.912 339.544 462.501 346.745C462.181 346.675 461.861 346.609 461.542 346.535C457.574 345.625 453.769 343.677 449.856 342.483C436.397 338.38 420 336.91 407.474 344.519C399.06 349.63 394.777 357.726 392.554 367.087C391.311 372.319 390.305 379.367 391.924 384.594C389.002 397.964 388.686 411.759 396.419 423.657C401.903 432.096 410.679 438.36 420.585 440.336C428.212 441.856 436.567 441.2 444.093 439.433C444.88 440.983 445.673 441.434 447.177 442.253C436.345 446.976 426.151 445.842 414.85 444.133L415.024 444.63L413.887 444.252L418.08 446.706C418.716 447.087 419.06 447.448 419.51 448.022C414.508 448.064 409.519 448.522 404.532 448.553C404.768 474.013 412.806 492.434 430.963 510.359C435.506 514.844 440.441 518.753 445.644 522.439C449.564 525.216 464.091 533.199 466.012 535.839C463.076 535.16 460.124 534.417 457.247 533.521C429.949 525.018 404.945 504.492 389.705 480.504C385.471 473.839 382.309 466.501 378.65 459.51C381.092 433.734 380.485 407.977 374.891 382.608C373.296 375.375 367.849 364.379 367.774 357.785C367.69 350.43 371.692 335.5 373.915 328.115Z"/>
	<path fill="#F36337" d="M461.082 90.0842Q461.908 90.7697 462.751 91.4345Q463.593 92.0993 464.452 92.7431Q465.311 93.3868 466.186 94.0091Q467.061 94.6314 467.95 95.2319Q468.84 95.8324 469.744 96.4106Q470.649 96.9889 471.567 97.5446Q472.486 98.1003 473.417 98.6331Q474.349 99.1659 475.294 99.6754Q476.239 100.185 477.196 100.671Q478.153 101.157 479.122 101.619Q480.091 102.081 481.07 102.52Q482.05 102.958 483.041 103.371Q484.031 103.785 485.032 104.174Q486.032 104.563 487.042 104.927Q488.052 105.291 489.07 105.63Q490.089 105.969 491.115 106.283Q492.142 106.597 493.176 106.885Q494.21 107.173 495.251 107.436Q496.291 107.699 497.338 107.935Q498.385 108.172 499.438 108.383Q500.49 108.593 501.548 108.778Q502.605 108.963 503.667 109.121Q504.729 109.279 505.794 109.412Q506.859 109.544 507.927 109.649Q508.995 109.755 510.066 109.834Q511.136 109.913 512.209 109.966Q513.281 110.019 514.354 110.045Q515.427 110.071 516.5 110.07Q517.574 110.07 518.647 110.043Q519.72 110.016 520.792 109.962Q521.864 109.909 522.934 109.829Q524.005 109.749 525.073 109.642C546.678 107.481 561.27 101.599 582.993 110.154C588.267 112.232 593.916 114.843 598.506 118.202Q602.75 120.858 606.718 123.912Q610.685 126.965 614.339 130.388C626.33 141.419 637.432 156.19 640.353 172.603C642.159 179.64 641.316 187.727 641.022 194.909C615.832 168.147 583.643 151.033 547.986 142.742C538.292 140.487 528.414 139.093 518.584 137.57C503.583 132.444 489.54 127.542 478.014 116.059C473.753 111.814 461.07 95.966 461.082 90.0842Z"/>
	<path fill="#F6B071" d="M528.623 113.313Q535.542 111.639 542.514 110.201C560.291 106.482 579.442 108.155 594.931 118.269L598.506 118.202Q602.75 120.858 606.718 123.912Q610.685 126.965 614.339 130.388C626.33 141.419 637.432 156.19 640.353 172.603L639.89 173.581C639.63 173.541 639.351 173.567 639.109 173.462C637.914 172.945 633.747 165.876 632.554 164.209Q627.782 157.553 622.34 151.432C606.192 133.398 585.027 120.14 560.993 116.002C550.358 114.17 539.386 113.9 528.623 113.313Z"/>
	<path fill="#E79673" d="M594.931 118.269L598.506 118.202Q602.75 120.858 606.718 123.912Q610.685 126.965 614.339 130.388C608.061 130.003 600.382 121.87 594.931 118.269Z"/>
	<path fill="#65D0D2" d="M312.231 355.634C315.552 349.105 328.6 341.077 335.431 338.793C340.169 337.209 344.912 337.236 349.375 339.63C361.326 346.039 368.156 364.442 371.572 376.642C376.367 393.771 378.185 413.275 378.533 431.002C367.885 438.223 356.104 441.745 343.496 443.736C343.397 441.662 343.43 439.481 343.083 437.435C343.093 443.432 343.213 449.519 342.891 455.507C342.538 455.399 342.1 455.436 341.832 455.182C340.365 453.79 342.985 442.015 341.182 439.13L341.186 443.952C339.048 443.751 336.825 443.515 334.742 442.974C319.599 439.043 309.031 414.545 303.882 400.908C302.107 396.208 300.796 390.027 298.15 385.899C297.98 385.633 297.8 385.374 297.625 385.111C298.2 382.461 298.84 379.853 299.666 377.268C301.603 371.208 305.982 359.963 311.973 356.881L312.231 355.634Z"/>
	<path fill="#000004" d="M312.231 355.634C319.228 357.451 323.636 362.703 327.199 368.695C338.857 388.298 342.729 414.838 343.083 437.435C343.093 443.432 343.213 449.519 342.891 455.507C342.538 455.399 342.1 455.436 341.832 455.182C340.365 453.79 342.985 442.015 341.182 439.13C340.766 417.228 337.795 393.614 327.917 373.817C324.371 366.709 319.895 359.504 311.973 356.881L312.231 355.634Z"/>
	<path fill="#65D0D2" d="M311.973 356.881C319.895 359.504 324.371 366.709 327.917 373.817C337.795 393.614 340.766 417.228 341.182 439.13L341.186 443.952C339.048 443.751 336.825 443.515 334.742 442.974C319.599 439.043 309.031 414.545 303.882 400.908C302.107 396.208 300.796 390.027 298.15 385.899C297.98 385.633 297.8 385.374 297.625 385.111C298.2 382.461 298.84 379.853 299.666 377.268C301.603 371.208 305.982 359.963 311.973 356.881Z"/>
	<path fill="#05495D" d="M434.846 789.558C434.212 793.369 432.497 797.14 430.986 800.682C436.742 821.49 461.043 840.033 479.261 850.298C517.368 871.768 559.999 875.019 601.719 862.925C605.693 861.773 620.848 854.672 622.942 854.956L623.336 855.543C623.494 856.828 623.562 857.807 624.13 858.993C624.008 859.142 623.896 859.299 623.765 859.44C619.832 863.703 612.938 866.57 607.681 868.72C585.417 877.822 562.472 881.811 538.54 883.116C493.617 885.566 427.463 882.541 392.34 851.049C397.92 833.887 402.869 816.783 406.358 799.057C418.271 799.226 425.79 798.209 434.846 789.558Z"/>
	<path fill="#65D0D2" d="M400.537 176.42C409.705 169.485 419.821 163.17 430.211 158.234C471.791 138.48 522.333 137.796 565.412 153.144C564.461 154.257 562.915 155.54 562.612 156.959C568.673 161.947 580.187 166.686 587.453 170.792C604.245 180.283 627.111 201.043 637.376 217.538C655.515 241.199 665.599 262.654 672.282 291.604Q675.281 304.417 676.897 317.476C677.156 319.711 677.394 329.978 678.342 331.192C674.504 331.287 671.65 332.113 668.157 333.575C666.183 310.58 662.729 289.931 653.454 268.57C635.177 226.479 602.959 194.307 560.02 177.448C515.393 159.926 462.908 160.68 419.209 180.58C401.497 188.646 385.351 199.656 367.477 207.422C376.685 196.035 388.322 184.534 400.537 176.42Z"/>
	<path fill="#F36337" d="M571.161 884.418C586.173 880.464 599.567 876.844 613.894 870.63C614.57 878.765 615.943 887.866 614.324 895.927C613.682 899.125 611.87 902.138 611.455 905.36C595.506 916.75 548.507 932.766 528.312 936.419L522.127 925.232C527.739 922.628 532.334 919.603 537.206 915.793C512.669 923.746 506.313 923.798 482.245 913.718C487.619 918.815 493.53 922.097 500.119 925.398Q497.947 931.101 495.472 936.68C478.875 932.302 449.775 925.148 435.461 916.921C433.699 912.428 431.744 907.474 432.168 902.568C432.522 898.471 434.515 895.172 437.636 892.567C440.181 890.442 442.746 889.853 446.027 889.677C455.969 889.143 466.427 889.866 476.392 890.175C490.19 890.603 504.079 890.83 517.879 890.751Q527.216 890.683 536.531 890.032C541.035 889.674 546.413 888.457 550.842 888.949C552.956 889.036 555.068 888.84 557.164 888.582C561.021 888.108 568.647 887.649 571.161 884.418Z"/>
	<path fill="#2098A6" d="M444.795 780.431C462.128 785.879 492.7 803.193 507.498 814.056C514.898 819.489 520.648 828.145 529.533 831.287C535.239 835.936 541.049 838.725 548.372 839.779C567.606 842.546 584.147 834.582 599.081 823.301L599.821 823.43C602.529 827.783 607.495 829.556 612.273 830.662Q615.684 831.473 619.163 831.91C620.788 838.793 623.795 848.634 623.336 855.543L622.942 854.956C620.848 854.672 605.693 861.773 601.719 862.925C559.999 875.019 517.368 871.768 479.261 850.298C461.043 840.033 436.742 821.49 430.986 800.682C432.497 797.14 434.212 793.369 434.846 789.558C435.338 787.321 442.485 783.741 444.795 780.431Z"/>
	<path fill="#921C2D" d="M325.087 244.423C322.307 241.206 320.077 237.946 318.332 234.061C313.84 224.065 312.539 211.846 316.5 201.49C317.844 202.955 319.077 204.481 320.313 206.037C320.455 214.668 325.306 221.89 331.292 227.739C342.662 238.848 358.456 246.082 374.494 245.773C388.232 245.509 402.216 240.189 414.533 234.364C416.897 233.246 421.429 229.676 423.704 229.525C416.251 238.588 406.473 246.536 398.237 254.966C427.749 264.058 461.03 263.639 488.744 249.027Q490.971 247.851 493.132 246.557Q495.294 245.264 497.383 243.857Q499.471 242.45 501.482 240.933Q503.493 239.416 505.42 237.794Q507.346 236.172 509.184 234.449Q511.021 232.726 512.763 230.907Q514.506 229.089 516.149 227.179Q517.792 225.27 519.33 223.276C514.17 238.924 506.65 254.17 500.133 269.3C497.543 275.316 494.064 281.913 492.59 288.277C514.461 291.382 538.275 283.504 555.74 270.363C564.733 263.596 570.648 254.668 572.195 243.392C572.489 241.253 572.705 239.101 572.971 236.958C574.911 258.469 570.813 270.94 556.728 287.711C532.95 316.025 500.396 331.042 463.986 334.005C458.705 334.434 453.753 334.648 448.525 333.698C467.553 321.616 476.394 300.828 485.641 281.308C488.075 276.171 491.027 271.287 493.477 266.153C487.185 274.024 481.044 282.187 473.73 289.145C454.163 307.76 425.754 319.212 399.085 322.096C373.154 324.9 351.322 322.606 330.084 306.288C329.045 304.621 328.239 303.963 326.534 303.006C333.488 303.298 340.942 300.282 347.448 298.075C344.095 298.241 340.84 298.358 337.489 298.089C337.812 298.043 338.135 298.001 338.458 297.949C344.377 297.002 349.474 299.337 354.393 297.283C356.704 296.318 358.477 294.355 360.725 293.208L360.754 293.23C355.431 294.828 347.514 296.829 342.178 294.717C342.015 294.653 341.857 294.579 341.696 294.509Q338.78 294.181 335.879 293.742C323.138 291.707 311.97 286.1 304.369 275.474C295.402 262.938 292.047 246.336 294.55 231.216C304.378 237.985 313.129 242.91 325.087 244.423Z"/>
	<path fill="#3F103A" d="M341.696 294.509C352.756 294.607 357.999 293.081 368.245 289.115C356.624 298.213 344.086 302.334 330.084 306.288C329.045 304.621 328.239 303.963 326.534 303.006C333.488 303.298 340.942 300.282 347.448 298.075C344.095 298.241 340.84 298.358 337.489 298.089C337.812 298.043 338.135 298.001 338.458 297.949C344.377 297.002 349.474 299.337 354.393 297.283C356.704 296.318 358.477 294.355 360.725 293.208L360.754 293.23C355.431 294.828 347.514 296.829 342.178 294.717C342.015 294.653 341.857 294.579 341.696 294.509Z"/>
	<path fill="#2098A6" d="M507.083 666.161C507.697 665.668 507.41 665.841 508.052 665.524C513.544 662.815 518.631 658.769 523.785 655.418C540.356 644.641 556.261 633.189 572.501 621.947C581.727 615.559 591.914 610.332 600.898 603.677C603.96 601.409 606.364 598.96 608.722 595.977C613.6 602.001 618.545 606.895 624.178 612.187C624.306 612.585 624.334 613.031 624.562 613.382C625.864 615.388 629.907 617.685 631.812 619.37Q635.19 622.336 637.914 625.912C641.127 630.07 643.276 634.624 645.868 639.15L656.804 658.022Q666.395 674.672 674.602 692.046Q682.809 709.42 689.579 727.403C691.307 731.996 699.753 759.371 701.227 761.124L701.639 760.918L702.494 762.727C701.827 766.593 697.659 769.21 694.614 771.361C679.218 782.237 662.179 788.972 644.252 794.355C641.737 795.11 637.161 797.062 634.704 796.668C634.555 796.644 634.414 796.583 634.269 796.54C634.688 792.012 634.979 787.564 634.775 783.016C634.168 769.489 630.576 752.557 620.194 743.035L620.368 742.48C626.525 737.106 647.633 732.407 655.895 732.119C661.124 731.937 665.602 732.571 669.534 736.251C669.513 736.089 669.506 735.923 669.471 735.763C669.094 734.043 667.636 732.563 666.243 731.573C660.956 727.818 653.145 728.331 647.079 729.33C646.972 729.226 646.861 729.127 646.758 729.019C641.935 723.988 618.686 690.249 616.649 684.112C616.262 682.947 616.374 681.512 616.413 680.297C616.882 670.779 618.222 660.051 622.287 651.321C623.606 648.487 626.382 645.244 627.217 642.424L626.574 642.219C620.032 646.453 616.962 657.283 615.404 664.466C612.38 678.413 612.134 693.009 611.233 707.213C610.548 718.016 609.437 728.786 608.76 739.589C605.61 740.171 603.048 741.111 600.133 742.415C592.353 731.325 583.676 723.325 571.039 718.112C568.371 717.011 565.042 716.714 562.554 715.489C560.572 714.513 563.391 708.335 558.726 706.059C554.398 703.948 549.423 702.619 544.856 701.106L523.11 693.812L449.956 668.949C445.674 673.986 443.572 679.321 441.597 685.571C438.875 684.537 436.504 683.463 433.635 684.793C432.976 685.098 432.366 685.504 431.755 685.891C428.105 683.241 425.068 681.626 420.37 682.289C418.916 682.494 417.494 682.923 416.089 683.339C415.272 672.573 411.448 662.602 409.339 652.111C407.784 644.377 426.602 620.06 431.622 612.686C439.543 618.664 447.982 624.117 456.092 629.848L492.307 655.828C494.942 657.696 503.751 662.815 505.267 664.907L506.404 666.77C507.054 666.332 506.895 666.591 507.083 666.161Z"/>
	<path fill="#65D0D2" d="M620.194 743.035L620.368 742.48C626.525 737.106 647.633 732.407 655.895 732.119C661.124 731.937 665.602 732.571 669.534 736.251C669.845 737.368 670.41 738.234 669.835 739.279C667.297 738.493 664.887 737.47 662.271 736.941C652.169 734.9 640.739 738.478 630.942 740.921C627.566 741.763 623.681 743.106 620.194 743.035Z"/>
	<path fill="#F36337" d="M320.313 206.037C328.112 213.515 336.112 217.228 347.06 216.985C375.006 216.363 401.559 193.767 426.778 183.086C485.273 158.313 562.558 169.959 609.075 213.912Q611.798 216.501 614.406 219.205Q617.014 221.91 619.502 224.726Q621.99 227.541 624.353 230.463Q626.716 233.384 628.949 236.406Q631.182 239.427 633.282 242.543Q635.381 245.659 637.343 248.864Q639.305 252.068 641.125 255.355Q642.945 258.642 644.621 262.005C646.777 266.25 649.401 271.271 650.38 275.938C650.308 280.425 651.18 285.179 651.539 289.686C652.023 295.769 651.804 301.577 651.327 307.644C641.854 305.733 633.192 301.918 625.061 296.731Q621.736 294.647 618.575 292.322Q615.413 289.997 612.433 287.443Q609.453 284.89 606.671 282.123Q603.889 279.355 601.32 276.389C584.812 257.683 579.622 239.394 574.449 215.645C573.894 221.213 572.58 227.953 573.097 233.49L572.971 236.958C572.705 239.101 572.489 241.253 572.195 243.392C570.648 254.668 564.733 263.596 555.74 270.363C538.275 283.504 514.461 291.382 492.59 288.277C494.064 281.913 497.543 275.316 500.133 269.3C506.65 254.17 514.17 238.924 519.33 223.276Q517.792 225.27 516.149 227.179Q514.506 229.089 512.763 230.907Q511.021 232.726 509.184 234.449Q507.346 236.172 505.42 237.794Q503.493 239.416 501.482 240.933Q499.471 242.45 497.383 243.857Q495.294 245.264 493.132 246.557Q490.971 247.851 488.744 249.027C461.03 263.639 427.749 264.058 398.237 254.966C406.473 246.536 416.251 238.588 423.704 229.525C421.429 229.676 416.897 233.246 414.533 234.364C402.216 240.189 388.232 245.509 374.494 245.773C358.456 246.082 342.662 238.848 331.292 227.739C325.306 221.89 320.455 214.668 320.313 206.037Z"/>
	<path fill="#FBF6DF" d="M576.493 297.409C592.924 306.052 606.398 319.629 620.747 331.189C627.974 337.013 636.584 342.372 642.852 349.196C645.915 352.531 646.993 357.054 649.255 360.876C637.121 395.614 632.547 433.727 640.855 469.911C634.909 477.646 629.718 485.82 623.32 493.219C599.711 520.522 567.929 536.988 532.221 541.581C510.17 544.418 487.371 541.691 466.012 535.839C464.091 533.199 449.564 525.216 445.644 522.439C440.441 518.753 435.506 514.844 430.963 510.359C412.806 492.434 404.768 474.013 404.532 448.553C409.519 448.522 414.508 448.064 419.51 448.022C419.06 447.448 418.716 447.087 418.08 446.706L413.887 444.252L415.024 444.63L414.85 444.133C426.151 445.842 436.345 446.976 447.177 442.253C445.673 441.434 444.88 440.983 444.093 439.433C436.567 441.2 428.212 441.856 420.585 440.336C410.679 438.36 401.903 432.096 396.419 423.657C388.686 411.759 389.002 397.964 391.924 384.594C390.305 379.367 391.311 372.319 392.554 367.087C394.777 357.726 399.06 349.63 407.474 344.519C420 336.91 436.397 338.38 449.856 342.483C453.769 343.677 457.574 345.625 461.542 346.535C461.861 346.609 462.181 346.675 462.501 346.745C465.122 348.688 467.076 351.306 469.227 353.735C468.046 350.622 466.842 347.915 464.95 345.171C490.427 342.183 527.952 328.726 550.026 315.488C559.211 309.98 567.491 303.157 576.493 297.409Z"/>
	<path fill="#F6B071" d="M444.093 439.433C447.694 438.686 451.122 437.426 454.589 436.223C454.418 436.443 454.254 436.668 454.075 436.881C453.115 438.022 451.575 438.432 450.218 438.924L449.636 439.822L449.891 440.295C451.506 439.955 453.113 439.24 454.601 440.011C452.142 441.056 449.641 441.369 447.177 442.253C445.673 441.434 444.88 440.983 444.093 439.433Z"/>
	<path fill="#F36337" d="M561.97 337.303C562.987 336.301 564.127 335.431 565.305 334.626C574.91 328.061 585.784 325.35 597.252 327.466C600.215 328.468 602.909 329.426 605.563 331.126C593.275 329.545 584.446 327.866 572.413 332.838C568.961 334.264 565.696 336.773 561.97 337.303Z"/>
	<path fill="#F36337" d="M454.601 440.011C455.808 439.728 457.019 439.342 458.261 439.334C445.598 448.449 434.793 449.181 419.51 448.022C419.06 447.448 418.716 447.087 418.08 446.706L413.887 444.252L415.024 444.63L414.85 444.133C426.151 445.842 436.345 446.976 447.177 442.253C449.641 441.369 452.142 441.056 454.601 440.011Z"/>
	<path fill="#3F103A" d="M553.278 344.322C555.161 340.615 558.683 336.524 561.744 333.655C569.671 326.227 579.999 323.635 590.633 324.041C590.799 324.109 590.962 324.183 591.13 324.244C593.273 325.016 595.736 324.633 596.985 326.892C597.087 327.077 597.163 327.275 597.252 327.466C585.784 325.35 574.91 328.061 565.305 334.626C564.127 335.431 562.987 336.301 561.97 337.303C558.943 339.52 556.096 341.845 553.278 344.322Z"/>
	<path fill="#F36337" d="M572.535 438.714C581.245 440.647 591.657 441.567 600.229 438.459C602.7 437.563 604.87 435.957 607.327 435.071L607.971 434.844C607.469 436.266 606.564 436.691 605.194 437.352C602.977 438.42 600.089 438.774 598.317 440.589C601.452 442.127 607.819 437.175 611.585 437.918L611.596 438.508L611.946 438.232L610.983 438L610.709 439.008L608.42 439.938C599.933 446.491 591.457 448.507 580.835 447.161C572.15 446.061 565.421 442.888 559.361 436.5C563.508 438.681 567.336 439.849 571.895 440.833L572.535 438.714Z"/>
	<defs>
		<linearGradient id="gradient_0" gradientUnits="userSpaceOnUse" x1="585.18549" y1="444.83228" x2="589.31451" y2="437.16772">
			<stop offset="0" stop-color="#F69F74"/>
			<stop offset="1" stop-color="#FABE8B"/>
		</linearGradient>
	</defs>
	<path fill="url(#gradient_0)" d="M572.535 438.714C581.245 440.647 591.657 441.567 600.229 438.459C602.7 437.563 604.87 435.957 607.327 435.071L607.971 434.844C607.469 436.266 606.564 436.691 605.194 437.352C602.977 438.42 600.089 438.774 598.317 440.589C601.452 442.127 607.819 437.175 611.585 437.918L611.596 438.508L611.946 438.232L610.983 438L610.709 439.008L608.42 439.938C597.752 441.975 582.287 445.427 571.895 440.833L572.535 438.714Z"/>
	<path fill="#1F0A4B" d="M554.145 463.985C557.172 464.409 558.996 465.113 561.343 467.069C562.868 468.339 564.09 469.486 564.267 471.568C563.829 472.906 563.553 473.363 562.415 474.198C560.827 473.662 560.362 472.235 559.468 470.852C559.151 470.731 558.854 470.528 558.516 470.49C557.483 470.372 544.972 478.512 542.556 479.639C526.073 487.326 508.563 490.179 490.631 486.672C486.435 485.747 482.633 483.973 478.813 482.058C489.501 483.668 499.606 484.613 510.454 483.841C523.496 482.912 534.944 479.482 546.376 473.178C549.038 471.711 552.106 470.233 554.117 467.91C554.026 467.16 553.961 466.588 553.62 465.9C553.544 465.747 553.452 465.602 553.368 465.453L554.145 463.985Z"/>
	<path fill="#F36337" d="M478.852 443.38C481.151 439.975 485.355 438.597 487.88 435.388C489.421 433.431 490.127 429.589 492.241 428.368L493.873 428.999C494.373 433.891 494.536 437.627 491.13 441.606C490.562 442.269 489.937 442.883 489.309 443.489C494.226 446.335 499.055 447.628 504.775 447.216C505.895 447.842 506.947 448.151 507.345 449.514C508.049 451.928 505.996 454.97 504.84 456.921C504.671 457.376 504.508 457.834 504.31 458.278C502.85 461.567 498.901 462.715 495.817 463.94C494.416 463.634 493.007 463.323 491.646 462.868C486.819 461.255 482.432 457.484 480.204 452.884C478.712 449.803 477.76 446.717 478.852 443.38Z"/>
	<path fill="#3F103A" d="M504.775 447.216C505.895 447.842 506.947 448.151 507.345 449.514C508.049 451.928 505.996 454.97 504.84 456.921C502.587 458.641 500.796 460.27 497.902 460.732C499.038 459.341 500.443 458.112 501.651 456.769C504.415 453.696 504.985 451.284 504.775 447.216Z"/>
	<path fill="#1F0A4B" d="M478.852 443.38C481.151 439.975 485.355 438.597 487.88 435.388C489.421 433.431 490.127 429.589 492.241 428.368L493.873 428.999C493.419 433.415 490.851 437.404 487.475 440.197C485.663 441.696 483.591 442.807 481.502 443.862C484.262 447.22 486.991 450.632 489.941 453.825C492.042 456.099 494.503 458.249 496.45 460.629C493.985 459.986 491.84 459.028 489.707 457.628C484.831 454.429 480.21 449.812 478.951 443.944L478.852 443.38Z"/>
	<path fill="#1F0A4B" d="M546.811 382.955C548.705 373.13 553.983 364.197 562.387 358.589C570.818 352.963 582.056 351.245 591.904 353.353C602.449 355.611 611.286 362.722 617.056 371.682C624.051 382.545 626.605 396.934 623.732 409.538C622.658 414.252 620.738 419.173 617.799 423.043C621.452 412.022 621.825 399.016 618.243 387.92C614.794 377.238 607.526 367.119 597.363 361.968Q596.563 361.571 595.745 361.213Q594.927 360.855 594.093 360.536Q593.258 360.219 592.409 359.941Q591.56 359.664 590.699 359.428Q589.838 359.192 588.966 358.999Q588.094 358.805 587.214 358.653Q586.334 358.502 585.448 358.393Q584.561 358.285 583.671 358.219Q582.78 358.154 581.887 358.131Q580.995 358.109 580.102 358.13Q579.209 358.151 578.318 358.215Q577.428 358.279 576.541 358.386Q575.654 358.493 574.774 358.643Q573.894 358.793 573.022 358.986Q572.15 359.178 571.288 359.413Q570.426 359.647 569.577 359.923C557.56 363.859 552.26 372.256 546.811 382.955Z"/>
	<path fill="#1F0A4B" d="M546.424 348.611C545.688 348.103 545.159 347.589 544.533 346.958C543.951 345.273 543.873 343.925 544.144 342.153C545.256 334.898 550.863 326.376 556.81 322.202C564.664 316.691 574.244 315.668 583.494 317.387C596.71 319.843 611.162 326.667 618.547 338.421C619.199 339.459 619.645 340.107 619.315 341.332C614.429 335.536 612.319 334.249 605.563 331.126C602.909 329.426 600.215 328.468 597.252 327.466C597.163 327.275 597.087 327.077 596.985 326.892C595.736 324.633 593.273 325.016 591.13 324.244C590.962 324.183 590.799 324.109 590.633 324.041C579.999 323.635 569.671 326.227 561.744 333.655C558.683 336.524 555.161 340.615 553.278 344.322C551.241 346.36 549.141 347.653 546.424 348.611Z"/>
	<path fill="#F36337" d="M546.424 348.611C547.496 344.783 548.347 341.116 550.086 337.504C553.287 330.854 558.262 325.578 565.406 323.183C572.281 320.88 584.085 320.762 590.633 324.041C579.999 323.635 569.671 326.227 561.744 333.655C558.683 336.524 555.161 340.615 553.278 344.322C551.241 346.36 549.141 347.653 546.424 348.611Z"/>
	<path fill="#1F0A4B" d="M391.924 384.594Q392.344 383.248 392.84 381.928Q393.337 380.608 393.907 379.319Q394.478 378.029 395.122 376.774Q395.765 375.52 396.479 374.304Q397.193 373.088 397.975 371.914Q398.758 370.741 399.605 369.614Q400.453 368.488 401.364 367.411Q402.275 366.335 403.246 365.312C411.07 357.115 421.451 352.63 432.767 352.381C443.168 352.153 452.908 355.593 460.429 362.864C465.301 367.575 471.248 376.111 471.348 383.136C466.153 372.596 460.426 363.71 448.786 359.76C439.253 356.525 427.988 356.983 418.957 361.518C408.649 366.695 401.449 376.267 397.962 387.125C394.28 398.591 394.554 412.281 400.208 423.089C403.628 429.628 409.186 434.032 416.18 436.277C424.635 438.99 433.994 437.664 442.603 436.545C434.111 432.871 427.463 427.557 424.02 418.714C421.545 412.357 420.808 404.55 422.134 397.862C422.159 398.004 422.187 398.146 422.21 398.289C422.826 402.043 422.374 405.895 422.645 409.682C423.281 418.557 428.488 426.546 435.582 431.694C438.131 433.543 440.995 434.648 443.644 436.3L443.65 436.934C439.948 438.909 427.032 439.006 422.721 438.523C419.747 438.189 416.672 437.198 413.758 436.472C413.281 436.353 411.511 435.716 411.174 436.031C424.538 441.741 439.009 441.266 452.411 435.866C459.831 432.876 466.697 426.54 469.768 419.07C470.532 417.209 471.114 415.415 471.441 413.424L470.971 413.547C466.296 421.646 461.795 431.058 451.813 433.468C446.89 434.657 440.63 433.674 436.336 430.946C429.202 426.415 425.724 418.311 424.069 410.275C423.492 407.471 422.097 402.045 423.609 399.511L424.01 399.493L423.962 400.333C423.51 409.585 426.068 420.056 432.589 426.944C436.668 431.252 441.788 433.313 447.722 433.28C453.21 433.249 457.87 430.727 461.51 426.72C465.703 422.105 468.375 416.304 470.888 410.666C471.783 408.659 472.628 405.974 474.043 404.321C473.568 414.636 470.091 423.712 462.361 430.751C459.992 432.908 457.362 434.625 454.589 436.223C451.122 437.426 447.694 438.686 444.093 439.433C436.567 441.2 428.212 441.856 420.585 440.336C410.679 438.36 401.903 432.096 396.419 423.657C388.686 411.759 389.002 397.964 391.924 384.594Z"/>
	<path fill="#05495D" d="M422.134 397.862C422.14 397.071 422.29 396.253 422.433 395.478C423.831 387.934 427.58 381.086 434 376.692C439.239 373.107 445.872 371.289 452.167 372.574C461.022 374.382 466.535 380.873 471.31 387.959C472.885 391.862 475.517 400.26 474.043 404.321C472.628 405.974 471.783 408.659 470.888 410.666C468.375 416.304 465.703 422.105 461.51 426.72C457.87 430.727 453.21 433.249 447.722 433.28C441.788 433.313 436.668 431.252 432.589 426.944C426.068 420.056 423.51 409.585 423.962 400.333L424.01 399.493L423.609 399.511C422.097 402.045 423.492 407.471 424.069 410.275C425.724 418.311 429.202 426.415 436.336 430.946C440.63 433.674 446.89 434.657 451.813 433.468C461.795 431.058 466.296 421.646 470.971 413.547L471.441 413.424C471.114 415.415 470.532 417.209 469.768 419.07C466.697 426.54 459.831 432.876 452.411 435.866C439.009 441.266 424.538 441.741 411.174 436.031C411.511 435.716 413.281 436.353 413.758 436.472C416.672 437.198 419.747 438.189 422.721 438.523C427.032 439.006 439.948 438.909 443.65 436.934L443.644 436.3C440.995 434.648 438.131 433.543 435.582 431.694C428.488 426.546 423.281 418.557 422.645 409.682C422.374 405.895 422.826 402.043 422.21 398.289C422.187 398.146 422.159 398.004 422.134 397.862Z"/>
	<path fill="#FBF6DF" d="M451.792 383.088C453.422 383.284 454.978 383.464 456.434 384.277Q456.977 384.585 457.487 384.946Q457.997 385.306 458.469 385.716Q458.94 386.125 459.369 386.579Q459.797 387.033 460.179 387.528Q460.56 388.022 460.891 388.552Q461.221 389.082 461.497 389.643Q461.773 390.203 461.992 390.788Q462.211 391.372 462.371 391.976C463.269 395.275 462.907 398.776 461.016 401.665C459.07 404.637 456.484 405.691 453.157 406.489C451.254 406.377 449.427 406.093 447.745 405.137Q447.259 404.861 446.804 404.538Q446.348 404.216 445.927 403.848Q445.507 403.481 445.125 403.074Q444.743 402.666 444.404 402.222Q444.066 401.778 443.773 401.303Q443.481 400.827 443.238 400.324Q442.994 399.821 442.803 399.297Q442.612 398.772 442.474 398.231Q442.313 397.623 442.213 397.002Q442.114 396.381 442.076 395.753Q442.039 395.125 442.065 394.497Q442.091 393.868 442.179 393.245Q442.268 392.623 442.418 392.012Q442.568 391.401 442.779 390.808Q442.99 390.216 443.258 389.647Q443.527 389.078 443.851 388.539C445.759 385.397 448.352 384.032 451.792 383.088Z"/>
	<path fill="#1F0A4B" d="M566.074 371.778C572.99 370.411 579.994 371.737 585.836 375.785C588.403 377.564 590.699 379.807 592.374 382.447C593.791 383.692 595.106 386.057 595.806 387.82C599.86 396.54 600.36 407.731 597.091 416.799C593.595 426.494 586.723 431.863 577.625 436.05L576.44 436.592C592.482 437.941 601.59 437.343 614.867 427.728C613.172 430.557 610.346 432.597 607.971 434.844L607.327 435.071C604.87 435.957 602.7 437.563 600.229 438.459C591.657 441.567 581.245 440.647 572.535 438.714C564.418 436.154 556.442 432.495 551.825 424.938C550.133 422.836 548.86 420.51 547.823 418.029C543.443 407.559 544.56 395.857 548.7 385.564C552.717 378.888 558.432 373.84 566.074 371.778Z"/>
	<path fill="#05495D" d="M560.92 383.722C562.906 383.089 564.279 376.487 569.11 374.769C574.075 373.003 579.122 375.039 583.577 377.179L589.104 381.541C591.643 385.299 593.617 388.757 595.108 393.065C597.218 402.959 597.348 412.736 591.61 421.514C588.22 426.7 582.766 431.453 576.577 432.663C570.924 433.768 565.2 431.797 560.582 428.565C558.542 427.137 556.82 425.493 555.122 423.675L553.295 420.111C553.557 415.104 554.619 410.066 555.796 405.203C553.738 403.536 552.381 401.534 551.574 398.999C550.569 395.84 550.859 392.443 552.51 389.555C554.477 386.114 557.227 384.74 560.92 383.722Z"/>
	<path fill="#FBF6DF" d="M560.92 383.722C564.272 384.692 566.707 385.912 568.507 389.03Q568.822 389.582 569.079 390.163Q569.336 390.743 569.533 391.347Q569.73 391.951 569.864 392.572Q569.999 393.193 570.07 393.824Q570.141 394.455 570.148 395.09Q570.155 395.725 570.097 396.358Q570.04 396.99 569.918 397.614Q569.797 398.237 569.613 398.845C568.798 401.539 567.102 403.863 564.592 405.193C561.748 406.701 559.347 406.423 556.399 405.415L555.796 405.203C553.738 403.536 552.381 401.534 551.574 398.999C550.569 395.84 550.859 392.443 552.51 389.555C554.477 386.114 557.227 384.74 560.92 383.722Z"/>
</svg>
